<svg aria-hidden="true" style="position:absolute;width:0;height:0" xmlns="http://www.w3.org/2000/svg" overflow="hidden"><defs>
<symbol id="logo" viewBox="0 0 32 32">
    <path fill="none" stroke="var(--color1, #818181)" stroke-width="2.6667" stroke-linecap="round" stroke-linejoin="round" d="M26.427 2.667H5.574c-1.605 0-2.907 1.301-2.907 2.907v20.853c0 1.605 1.301 2.907 2.907 2.907v0h20.853c1.605 0 2.907-1.301 2.907-2.907v0V5.574c0-1.605-1.301-2.907-2.907-2.907v0zm-17.094 0v26.667M22.667 2.667v26.667M2.667 16h26.667M2.667 9.333h6.667M2.667 22.667h6.667m13.333 0h6.667M22.667 9.333h6.667"/></symbol>
<symbol id="icon-search" viewBox="0 0 32 32">
    <path fill="none" stroke="var(--color1, #fff)" stroke-width="2.6667" stroke-linecap="round" stroke-linejoin="round" d="M14.667 25.333c5.891 0 10.667-4.776 10.667-10.667S20.558 3.999 14.667 3.999v0C8.776 3.999 4 8.775 4 14.666s4.776 10.667 10.667 10.667v0zM28 28l-5.8-5.8"/></symbol>
<symbol id="moon" viewBox="0 0 32 32">
    <path fill="currentColor" d="M17.701 32a15.97 15.97 0 0 0 12.429-5.925c.442-.544-.04-1.339-.723-1.209-7.763 1.478-14.891-4.474-14.891-12.31 0-4.514 2.416-8.665 6.344-10.9.605-.345.453-1.262-.235-1.389-.879-.17-1.89-.267-2.923-.268-8.832 0-16 7.157-16 16 0 8.832 7.157 16 16 16z"/></symbol>
<symbol id="sun" viewBox="0 0 32 32">
    <path fill="currentColor" d="M16 10c-3.306 0-6 2.694-6 6s2.694 6 6 6 6-2.694 6-6-2.694-6-6-6zm15.4 5.031-5.919-2.956L27.575 5.8c.281-.85-.525-1.656-1.369-1.369l-6.275 2.094L16.969.6c-.4-.8-1.537-.8-1.938 0l-2.956 5.919-6.281-2.094c-.85-.281-1.656.525-1.369 1.369l2.094 6.275L.6 15.032c-.8.4-.8 1.538 0 1.938l5.919 2.956-2.094 6.281c-.281.85.525 1.656 1.369 1.369l6.275-2.094 2.956 5.919c.4.8 1.538.8 1.938 0l2.956-5.919 6.275 2.094c.85.281 1.656-.525 1.369-1.369l-2.094-6.275 5.919-2.956c.813-.406.813-1.544.012-1.944zm-9.744 6.625c-3.119 3.119-8.194 3.119-11.313 0s-3.119-8.194 0-11.313c3.119-3.119 8.194-3.119 11.313 0s3.119 8.194 0 11.313z"/></symbol>
<symbol id="close" viewBox="0 0 32 32">
<path d="M32 3.223 28.777 0 16 12.777 3.223 0 0 3.223 12.777 16 0 28.777 3.223 32 16 19.223 28.777 32 32 28.777 19.223 16 32 3.223z"/></symbol></defs>
<g id="up_arrow" transform="translate(0.000000,512.000000) scale(0.100000,-0.100000)"
fill="#000000" stroke="none">
<path d="M2495 4331 c-45 -28 -1260 -2141 -1259 -2191 0 -43 343 -780 382
-822 28 -30 68 -43 110 -33 17 3 185 139 427 345 220 187 402 340 405 340 4 0
184 -151 401 -336 217 -185 405 -340 419 -346 38 -15 91 -2 121 29 39 41 383
779 383 823 1 50 -1214 2163 -1259 2191 -38 24 -92 24 -130 0z m600 -1268
c291 -505 530 -921 532 -925 3 -7 -233 -517 -246 -531 -5 -4 -170 130 -367
298 -197 169 -372 316 -389 326 -34 21 -90 24 -121 6 -12 -7 -187 -153 -389
-325 -202 -172 -371 -310 -376 -305 -13 13 -250 524 -246 531 43 83 1062 1842
1067 1842 4 0 245 -413 535 -917z"/>
<path d="M2515 1730 c-37 -15 -910 -767 -923 -794 -46 -101 64 -206 161 -154
12 6 199 162 415 345 l392 334 28 -23 c15 -13 191 -162 391 -333 200 -171 373
-315 385 -322 11 -7 36 -12 54 -13 92 -1 149 89 107 169 -15 30 -854 752 -909
784 -33 18 -68 21 -101 7z"/>
</g>
</svg>