<svg version="1.1" id="_x3C_Layer_x3E_" xmlns="http://www.w3.org/2000/svg" x="0" y="0" viewBox="0 0 2760 1840" style="enable-background:new 0 0 2760 1840" xml:space="preserve"><style>.st0{fill:#fff}.st2{fill:#12253f}.st3{fill:#830216}.st4{fill:#600819}.st5{fill:#233862}.st7{fill:#e52f48}.st8{fill:#c82f48}.st9{fill:#8c9df4}.st10{fill:#2b478b}.st11{fill:#812f48}.st12{fill:#ffb27d}.st13{fill:#2a4e96}.st14{fill:#163560}.st15{fill:#ed975d}.st16{fill:#aec3ff}.st17{fill:#8faef2}.st22{fill:#8caaea}.st23{fill:#fdfeff}.st25{fill:#060633}.st26{fill:#2c3a64}</style><path class="st0" d="M0 0h2760v1840H0z"/><path d="M2666.36 1188.03c-9.81 56.82-43.9 124.28-114.71 206.5H261.85s-133.91-70.89-155.12-206.5c-9.61-61.44-8.95-204.06 50.66-291.49C331.53 641.1 364.1 749.93 416.68 387.6c43.3-298.36 446.11-229.9 825.75-90.67 342.16 125.48 440.23-20.29 712.33-22.96 466.21-4.57 656.53 294.23 537.19 451.72-134.19 177.11 216.67 217.92 174.41 462.34z" style="fill:#180000"/><path class="st2" d="M532.97 510.86h1599.97v208.88H532.97zM721.11 846.54h1271.42v118.12H721.11z"/><path class="st3" d="M1291.7 851.35h-224.09c-23.28 0-42.15-18.87-42.15-42.15V472.95c0-23.28 18.87-42.15 42.15-42.15h224.09c23.28 0 42.15 18.87 42.15 42.15v336.26c0 23.27-18.87 42.14-42.15 42.14z"/><path class="st2" d="M1328.71 749.38h59.12c5.29 0 9.59-4.29 9.59-9.59v-22.4c0-5.29-4.29-9.59-9.59-9.59h-59.12c-5.3 0-9.59 4.29-9.59 9.59v22.4c0 5.29 4.29 9.59 9.59 9.59z"/><path transform="rotate(-180 1358.897 800.502)" class="st2" d="M1332.63 735.12h52.54v130.76h-52.54z"/><path class="st2" d="M978.35 865.88h406.82v38.41H978.35z"/><path class="st4" d="M1340.61 876.45h-330.02c-7.51 0-13.66-6.15-13.66-13.66v-61.66c0-7.51 6.15-13.66 13.66-13.66h330.02c7.51 0 13.66 6.14 13.66 13.66v61.66c-.01 7.52-6.15 13.66-13.66 13.66z"/><path class="st3" d="M858.12 851.35H673.56c-21.47 0-38.87-17.4-38.87-38.87V469.67c0-21.47 17.4-38.87 38.87-38.87h184.57c21.47 0 38.87 17.4 38.87 38.87v342.81c0 21.47-17.41 38.87-38.88 38.87z"/><path class="st2" d="M643.52 749.38h-56.65c-5.2 0-9.41-4.21-9.41-9.41v-22.75c0-5.2 4.21-9.41 9.41-9.41h56.65c5.2 0 9.41 4.21 9.41 9.41v22.75c0 5.19-4.21 9.41-9.41 9.41z"/><path class="st2" d="M589.27 735.12h50.64v130.76h-50.64z"/><path transform="rotate(-180 970.706 792.81)" class="st2" d="M915.95 719.74h109.51v146.14H915.95z"/><path class="st2" d="M589.27 865.88h392.14v38.41H589.27z"/><path class="st4" d="M884.7 876.45H619.48c-6.76 0-12.3-5.53-12.3-12.3v-64.37c0-6.76 5.53-12.3 12.3-12.3H884.7c6.76 0 12.3 5.53 12.3 12.3v64.37c0 6.77-5.54 12.3-12.3 12.3z"/><path class="st3" d="M1692.1 851.35h-224.09c-23.28 0-42.15-18.87-42.15-42.15V472.95c0-23.28 18.87-42.15 42.15-42.15h224.09c23.28 0 42.15 18.87 42.15 42.15v336.26c0 23.27-18.87 42.14-42.15 42.14z"/><path class="st2" d="M1435.2 749.38h-59.12c-5.29 0-9.59-4.29-9.59-9.59v-22.4c0-5.29 4.29-9.59 9.59-9.59h59.12c5.3 0 9.59 4.29 9.59 9.59v22.4c0 5.29-4.3 9.59-9.59 9.59z"/><path class="st2" d="M1378.74 735.12h52.54v130.76h-52.54zM1378.74 865.88h406.82v38.41h-406.82z"/><path class="st4" d="M1741 876.45h-330.02c-7.51 0-13.66-6.15-13.66-13.66v-61.66c0-7.51 6.15-13.66 13.66-13.66H1741c7.51 0 13.66 6.14 13.66 13.66v61.66c0 7.52-6.15 13.66-13.66 13.66z"/><path class="st3" d="M2086.3 851.35h-224.09c-23.28 0-42.15-18.87-42.15-42.15V472.95c0-23.28 18.87-42.15 42.15-42.15h224.09c23.28 0 42.15 18.87 42.15 42.15v336.26c0 23.27-18.87 42.14-42.15 42.14z"/><path class="st2" d="M1734.25 698.16h108.36v167.72h-108.36zM2123.31 749.38h59.13c5.29 0 9.59-4.29 9.59-9.59v-22.4c0-5.29-4.29-9.59-9.59-9.59h-59.13c-5.29 0-9.59 4.29-9.59 9.59v22.4c0 5.29 4.29 9.59 9.59 9.59z"/><path transform="rotate(-180 2153.497 800.502)" class="st2" d="M2127.23 735.12h52.54v130.76h-52.54z"/><path class="st2" d="M1772.94 865.88h406.82v38.41h-406.82z"/><path class="st4" d="M2135.21 876.45h-330.02c-7.51 0-13.66-6.15-13.66-13.66v-61.66c0-7.51 6.14-13.66 13.66-13.66h330.02c7.51 0 13.66 6.14 13.66 13.66v61.66c-.01 7.52-6.15 13.66-13.66 13.66z"/><path class="st5" d="M2666.36 1188.03c-9.81 68.59-43.9 150.03-114.71 249.27H261.85s-133.91-85.58-155.12-249.27h2559.63z"/><path d="M2624 1451.83H175.27c-2.76 0-5.02-2.26-5.02-5.02v-11.15c0-2.76 2.26-5.02 5.02-5.02H2624c2.76 0 5.02 2.26 5.02 5.02v11.15c0 2.76-2.26 5.02-5.02 5.02z" style="fill:#191e30"/><path class="st7" d="M1547.13 1131.28h-362.81c-36.31 0-65.74-29.43-65.74-65.74V558.76c0-36.31 29.43-65.74 65.74-65.74h362.81c36.31 0 65.74 29.43 65.74 65.74v506.79c0 36.3-29.43 65.73-65.74 65.73z"/><path class="st2" d="M1043.07 906.71h84.21v246.62h-84.21z"/><path transform="rotate(-180 1654.976 1040.082)" class="st2" d="M1612.87 907.05h84.21v266.07h-84.21z"/><path class="st2" d="M1043.07 1153.33h652.05v58.3h-652.05z"/><path class="st8" d="M1624.28 1169.38h-530.13c-11.71 0-21.3-9.58-21.3-21.3v-92.43c0-11.71 9.58-21.3 21.3-21.3h530.13c11.71 0 21.3 9.58 21.3 21.3v92.43c0 11.71-9.58 21.3-21.3 21.3z"/><path class="st0" d="m986.78 775.59-6.33-.28 2.47-56.69 27.35-17.65 3.44 5.33-24.6 15.87z"/><path class="st9" d="M943.1 907.82h58.23l6.86-133.61h-70.71z"/><path transform="rotate(-180 973.441 774.311)" class="st0" d="M932.02 766.8h82.85v15.02h-82.85z"/><path class="st7" d="M924.88 557.67v508.95c0 35.71-28.95 64.66-64.66 64.66h-348.8c-35.7 0-64.66-28.94-64.66-64.66V557.67c0-35.7 28.95-64.66 64.66-64.66h348.8c35.71 0 64.66 28.96 64.66 64.66z"/><path transform="rotate(-180 987.151 1056.49)" class="st2" d="M922.98 901.36h128.35v310.27H922.98z"/><path class="st10" d="M916.43 912.19h92.61c7.95 0 14.39-6.44 14.39-14.39v-31.62c0-7.95-6.44-14.39-14.39-14.39h-92.61c-7.95 0-14.39 6.44-14.39 14.39v31.62c0 7.94 6.44 14.39 14.39 14.39z"/><path class="st2" d="M373.72 1153.33h630.71v58.3H373.72z"/><path class="st8" d="M935.57 1169.38H423.48c-11.52 0-20.95-9.43-20.95-20.95v-93.13c0-11.52 9.43-20.95 20.95-20.95h512.09c11.52 0 20.95 9.43 20.95 20.95v93.13c0 11.52-9.43 20.95-20.95 20.95z"/><path class="st7" d="M2295.34 558.17v507.97c0 35.97-29.17 65.14-65.15 65.14H1875.1c-5 0-9.85-.56-14.53-1.63-28.99-6.61-50.61-32.54-50.61-63.51V558.17c0-35.99 29.16-65.15 65.14-65.15h355.09c27.02 0 50.2 16.45 60.06 39.88 3.28 7.77 5.09 16.31 5.09 25.27z"/><path class="st2" d="M1688.3 913.42h130.2v298.2h-130.2zM2288.31 932.05h90.92c8.92 0 16.16-7.23 16.16-16.16v-42.72c0-8.92-7.23-16.16-16.16-16.16h-90.92c-8.92 0-16.16 7.23-16.16 16.16v42.72c0 8.93 7.24 16.16 16.16 16.16z"/><path transform="rotate(-180 2344.397 1058.974)" class="st2" d="M2293.41 906.32h101.98v305.3h-101.98z"/><path class="st2" d="M1735.8 1153.33h640.3v58.3h-640.3z"/><path class="st11" d="M2295.34 881.91v-64.38c8.16-1.89 13.71-3.4 14.73-4.4 1.96-1.89-5.54-14.16-14.73-28.91V575.86c-5.67-11.53-8.01-24.47-5.09-42.96-9.86-23.44-33.04-39.88-60.06-39.88H2096.4c-24.05 51.2-33.29 111.11 1.02 132.96-4.96 4.12-8.63 8.82-10.11 14.12-3.76 13.36-19.03 55.98-33.75 96.29-11.1 30.41-32.42 56.32-60.54 73.55l-59.85 36.7c-15.22 4.44-38.95 12.02-42.41 17.09l-20.38 26.78s2.16 1.26 5.45-.61c.99-.56 2.29-1.61 3.64-2.81-2.19 5.75-3.7 10.87-3.53 13.27.25 3.4 4.71-.83 9.46-5.98l-.13 5.72s2.18-.66 4.51-3.64c1.15-1.46 2.47-6.27 3.52-10.73.71-.74 1.35-1.38 1.9-1.86 3.31-2.98 15.33-4.72 21.24-5.65.42-.07.8-.15 1.2-.21-.16.22-.33.47-.49.72-28.08 25.27-69.1 87.69-107.18 151.48v35.93c0 30.97 21.63 56.9 50.61 63.51 21.66-20.18 41.75-40.05 54.38-55.16l18.38 47.97 3.31 8.82h83.19c-6.31-38.2-14.68-79.78-24.99-111.76-2.65-8.26-5.44-15.85-8.36-22.62 30.6 14.48 95.69 45.67 155.32 45.67 29.56 0 120.56.06 120.56.06 0-.01 2.22 0 2.24 0 13.75-.21 21.82-6.73 25.87-16.9 2.03-5.08 3.64-10.37 4.86-15.82 5.11-22.46 3.92-47.52 0-71.09-3.53-21.2-9.25-41.17-14.58-56.97 4.85.09 9.74.11 14.58.06zm0-97.68c-1.38-2.21-2.8-4.47-4.22-6.77-.28 1.3-.54 2.57-.79 3.82-3.44 16.94-4.46 28.75-5.01 38.49 3.63-.79 7-1.53 10.02-2.22 8.16-1.89 13.71-3.4 14.73-4.4 1.95-1.9-5.54-14.17-14.73-28.92zm-196.68 29.14c-16.41 16.91-44.64 29.97-72.6 38.74-19.48 6.1-38.83 10.1-53.98 11.86 29.61-.03 69.92 3.63 110.8 10.35 9.56 1.56 19.11-1.36 26-7.52-7.73-3.75-9.18-1.9-10.22-53.43zm-150.22 51.06c-1.03.19-2.16.5-3.27 1 1.89-.25 3.89-.46 6-.65-.99-.09-1.9-.2-2.73-.35z"/><path class="st8" d="M2305.97 1169.38h-519.43c-11.82 0-21.49-9.67-21.49-21.49v-97.02c0-11.82 9.67-21.49 21.49-21.49h519.43c11.82 0 21.49 9.67 21.49 21.49v97.02c0 11.81-9.67 21.49-21.49 21.49z"/><path class="st12" d="M1768.47 1256.03c-2.38 11.88-102.87-18.65-88.6-20.3 1.79-.2 3.6-.42 5.4-.64 16.11-2.02 27.9-12.41 42.53-20.95 13.86-8.08 34.54-41.02 34.54-41.02l36.91 2.92s-19.37 29.42-26.86 42.21c-4.41 7.52-4.17 17.47-3.62 25.15.27 4.18.55 8.45-.3 12.63z"/><path class="st13" d="M1730.26 1261.31c-18.91-4.62-14.42.87-41.33-2.11-26.91-2.98-35.07-13.02-35.89-17.02-.74-3.55 12.56-4.8 26.83-6.45l.13.27s16.14 11.45 38.55 11.98c18.26.44 37.6-4.79 50.21-4.58.29 4.18.56 8.44-.29 12.63-2.37 11.88-19.3 9.9-38.21 5.28z"/><path class="st12" d="M2079.99 1287.61c7.33 9.64-82.04 64.8-73.84 53.02 1.04-1.48 2.06-2.98 3.09-4.47 9.14-13.41 9.15-29.13 12.42-45.75 3.1-15.74-22.6-73.59-22.6-73.59l41.29-5.2s5.39 34.93 10.03 49.01c2.73 8.28 14.2 13.74 20.32 18.41 3.33 2.56 6.71 5.18 9.29 8.57z"/><path class="st13" d="M2058.67 1319.76c-15.98 11.13-8.88 11.39-28.92 29.6s-32.96 17.69-36.5 15.66c-3.15-1.8 4.71-12.6 12.91-24.38l.29.08s19.26-4.53 34.48-20.98c12.41-13.4 21.28-31.36 29.78-40.69 3.32 2.55 6.7 5.17 9.28 8.57 7.34 9.63-5.35 21.01-21.32 32.14z"/><path class="st14" d="m1917.05 1013.43 37.71 101.48 49.24 132.51s13.36 1.29 26.16-2.39c11.78-3.4 25.3-12.31 25.3-12.31s-13.67-142.27-39.18-223.94c-6.54-20.96-13.86-37.92-21.94-47.46-39.55-46.74-77.29 52.11-77.29 52.11z"/><path class="st13" d="M1955.39 852.26c22.27-7.18 84.93-4.03 148.91 6.8 12.74 2.16 25.46-3.91 31.87-15.13l152.9-11.94s50.45 111.89 22.83 183.18c-4.06 10.48-12.13 17.2-25.88 17.42-.01.01-2.23-.01-2.23 0 0 0-91-.05-120.55-.05-76.04 0-160.92-52.27-171.91-54.47-17.97-3.59-25.16 32.35-43.14 70.1-17.97 37.74-168.95 167.15-168.95 167.15s-23.2.23-32.79-3.37c-10.31-3.87-14.08-8.89-14.08-8.89s167.3-332.83 223.02-350.8z"/><path class="st5" d="M2126.77 607.23c45.35 42.51 137.01 130.03 137.67 129.78 0 0 35.56 24.86 61.66 15.73 43.5-15.21 80.41-76.61 26.97-151.17-26.65-37.19-48.98-50.28-41.02-96.78 4.32-25.22-8.66-115.42-66.73-122.2-4.85-.57-34.08-6.58-55.6-1.46-54.84 13.05-139.18 194.68-62.95 226.1z"/><path class="st12" d="M2177.29 593.78c-.27.09 23.64 15.71 43.13 12.42 18.33-3.08 37.73-27 37.49-27.08-7.41-2.26-13.96-10.91-9.33-55.52l-3.48.33-58.58 5.62s-.5 18.21-2.17 35.24c-1.4 14.32-3.63 27.79-7.06 28.99z"/><path class="st15" d="M2186.51 529.56s-.5 18.21-2.17 35.24c32.23 2.31 52.16-25.31 60.75-40.86l-58.58 5.62z"/><path class="st12" d="M2174.16 544.61s75.93 8.87 80.72-38.5c4.8-47.37 17.83-78.12-30.45-85.79-48.27-7.67-59.54 9.45-64.98 24.87-5.44 15.43-4.92 95.89 14.71 99.42z"/><path class="st5" d="M2198.81 424.74s-19.6 11.19-27.43 21.2c-7.55 9.66-15.62 35.32-14.46 46.62 0 0-12.35-53.88 7.43-73.48 20.97-20.79 34.46 5.66 34.46 5.66z"/><path class="st16" d="M2118.91 719.46c2.29 153.36.63 121.32 17.4 135.87 4.04 3.5 15.41 5.59 30.36 6.58 47.03 3.12 129.69-4.63 132.84-13.32 10.85-30.07 3.19-39.41 12.24-85.45.94-4.9 2.11-10.2 3.48-15.97 7.55-31.62 14.89-42.38-11.88-93.18-24.28-46.02-50.49-82.78-52.76-81.43-64.05 38.02-67.84 5.2-67.84 5.2s-64.96 66.89-63.84 141.7z"/><path class="st13" d="m1954.76 1114.91 50.36 138.03s18.09 5.89 31.26 3.98c13.42-1.95 20.78-9.28 20.78-9.28s-15.38-157.2-40.89-238.87l-61.51 106.14z"/><path class="st17" d="M2166.68 861.91c47.03 3.12 129.69-4.63 132.84-13.32 10.85-30.07 3.19-39.41 12.24-85.45l-22.06-50.22s3.12 57.47-17.85 76.18c-20.95 18.71-85.88 36.11-96.07 51.74-4.92 7.5-8.16 15.03-9.1 21.07z"/><path class="st12" d="M1967.46 826.84s-50.12 13.54-55.27 21.32c-5.15 7.78-15.25 31.56-14.82 37.77.43 6.21 14.11-12.29 19.24-17.01 3.32-3.06 15.34-4.86 21.25-5.82 14.9-2.42 22.08-9.24 27.67-12.63 3.75-2.27 8.29-1.85 8.29-1.85l-6.36-21.78z"/><path class="st12" d="M1916.56 861.79s-3.04 17.06-5.37 20.13c-2.32 3.06-4.5 3.75-4.5 3.75l.36-14.73 9.51-9.15zM1912.19 848.16l-20.38 27.61s2.16 1.29 5.45-.63 10.15-9.48 10.15-9.48l4.78-17.5zM1965.53 850.47s-4.65 11.28-13.92 15.32c-9.28 4.04-16.09 10.12-17.58 7.93-1.49-2.18 7.02-13.68 7.02-13.68l24.48-9.57z"/><path class="st16" d="m2182.76 577.76-24.47 81.96s-15.93 112.57-31.41 128.05c-1.94 2.92-4.22 5.74-6.79 8.46-16.41 17.44-44.64 30.91-72.61 39.94-35.32 11.4-70.24 15.73-80.43 11.99-3.68-1.35-14.76-16.16-14.76-16.16l62.15-39.3a148.26 148.26 0 0 0 60.54-75.83c14.72-41.57 29.98-85.51 33.75-99.28 7.74-28.38 74.03-39.83 74.03-39.83z"/><path class="st0" d="m2187.82 776.09-4.41-2.72 22.94-37.39 31.23-10.61 1.67 4.9-29.47 10.02z"/><path style="fill:#f77d48" d="m2139.63 869.08 52.15 5.17 15.94-98.26-63.34-6.27z"/><path transform="scale(-1) rotate(5.653 15657.237 -44087.014)" class="st0" d="M2139.3 767.4h74.57v11.17h-74.57z"/><g><path class="st12" d="M2242.31 489.55s2.53-10.67 10.25-8.43c7.72 2.25 6.6 12.92-1.12 16.57-7.72 3.66-9.13-8.14-9.13-8.14z"/></g><g><path class="st5" d="M2172.42 418.3s36.66 52.49 67.8 63.91c31.13 11.42 45.85 4.25 45.85 4.25s-14.85-20.45-19.75-48.59c-1.44-8.29-7.2-15.2-15.15-17.98-22.32-7.8-65.36-19.74-78.75-1.59z"/></g><g><path class="st12" d="M2162.85 829.18s-14 12.08-17.99 13.05c-3.99.97-6.25.07-6.25.07l10.21-11.96 14.03-1.16zM2168.4 814.94l-35.46 9.15s.92 2.53 4.93 3.15c4.01.62 14.78-1.02 14.78-1.02l15.75-11.28z"/><path class="st12" d="M2228.53 834.49s-50.62-22.52-60.13-19.55c-9.5 2.98-33.87 15.88-37.69 21.31-3.82 5.43 19.96-.67 27.38-1.14 4.81-.3 15.98 6.3 21.52 9.48 23.33 13.4 39.53 12.21 39.53 12.21l9.39-22.31z"/></g><g><path class="st16" d="M2250.6 572.57s71.63 13.44 84.89 33.29c28.95 43.31 90.58 222.78 56.07 246.85-38.87 27.1-176.89 7.09-176.89 7.09s-4.59-21.47 1.8-31.85c6.39-10.39 110.24-27.16 115.04-31.95 4.79-4.79-47.35-74.1-41.8-87.37 17.78-42.5-39.11-136.06-39.11-136.06z"/></g><g><path class="st17" d="M2120.09 796.23c-16.41 17.44-44.64 30.91-72.61 39.94-.16-7.38 11.08-18.54 33.14-26.62 30.72-11.23 30.33-76.01 38.28-76.84 7.93-.83 1.19 63.52 1.19 63.52z"/></g><g><path class="st11" d="M864.54 874.48c-12.28 23.76-36.88 23.97-55.93 19.68-10.12-1.22-20.39-4.64-29.67-8.71-.11 1.52-.24 3-.35 4.45-.47 5.92-.91 11.31-1.31 16.08 13.39 5.71 24.67 14.79 31.03 27.45 6.74 13.44 6.17 52.33 1.93 100.92H484.75c-5.27-52.98-6.58-96.12.59-110.41 6.13-12.23 16.12-20.48 27.96-25.37-31.46-10.1-54.9-26.83-66.54-38.76V720.84c5.76-31.84 13.76-61.85 23.48-80.01 8.58-16.04 17.77-27.22 26.31-35.02 8.54-7.79 16.45-12.18 22.47-14.66 0 0 29.35-13.1 78.01-13.94 3.34-.06 6.73-.1 10.17-.12v-.02c4.25-9.62 10.19-19.31 6.84-55.16a38.77 38.77 0 0 1-3.79-4.26c-.06.04-.1.1-.16.15-.87.7-12.17 5.71-38.07-24.77h141.42c.74 17.1-1.48 30.94-9.09 34.21 0 0-7.59 2.73-18.68 5.09.29 4.38.87 12.31 1.9 23.29.08.84.8 10.67 1.44 19.49.12 1.65.01 3.28-.3 4.84 13.62 1.12 34.87 3.53 55.49 8.53 19.48 4.47 35.58 10.51 45.61 18.53.37.3.73.66 1.07 1.06.96.75 1.89 1.53 2.76 2.31 31.43 28.45 92.63 222.08 70.9 264.1z"/></g><g><path d="M848.42 1269.11s-28.75 50.94-19.91 60.23c0 0 35.17 21.94 135.09 35.43 7.1.96 14.28-16.16-6.61-27.87s-54.77-25.19-50.72-56.56c4.04-31.37-57.85-11.23-57.85-11.23z" style="fill:#0c1b2d"/><path class="st10" d="m807.44 1005.94-254.95 18.02V903.03h254.95z"/><path class="st10" d="M907.79 1296.59s-68.41 2.2-67.47-24.25c6.61-185.02 55.71-234.01 55.71-234.01l-47.23-1.32h-.01l-43.72-1.22-82.95-2.31 15.75-47.1 7.07-21.16 19.26-57.63 76.7 1.15s150.37 9.6 174.85 56.86c28.79 55.6-107.96 330.99-107.96 330.99z"/><path class="st2" d="m848.79 1037.01-43.73-1.22s-50.96-28.22-67.2-49.42c-7.34-9.56-30.42-17.58-15.75-21.05 3.9-.92 43.26 5.99 49.24 7.49 75.58 18.96 77.44 64.2 77.44 64.2z" style="opacity:.5"/><path d="M776.99 1327.1s-4.7 54.42 6.8 60.08c0 0 85.81 14.26 139.19-.29 7.8-2.13 4.28-22.14-19.37-25.92-23.65-3.78-68.31-14.98-75.34-45.82-7.03-30.82-51.28 11.95-51.28 11.95z" style="fill:#13243d"/><path class="st10" d="M818.43 1015.32c-6.93-43.83-132.59-71.9-173.23-81.99-9.11-2.26-14.66-3.45-14.66-3.45l-76.68-25.48c-17.17 43.46-17.12 112.59 0 133.92 17.12 21.33 129.04 21.37 156.11 31.31 27.06 9.94-27.62 42.45 57.66 247.61 11.3 27.18 65.26 6.93 65.26 6.93s-5.97-255.2-14.46-308.85z"/><path class="st16" d="M707.56 558.1s88.13 2.9 119.55 31.36c31.43 28.46 92.62 222.1 70.89 264.11-21.72 42.01-81.92 10.43-81.92 10.43l-23.46-48.11-3.28-145.54-81.78-112.25z"/><path class="st16" d="M813.14 855.04c-.37 4.91-.74 9.58-1.09 13.94-1.91 24.03-3.33 39.28-3.33 39.28s-26.55 31.25-135.09 46.01c-106.64 14.5-143.17 6.32-143.17 6.32l2.13-37.73 11.01-195.08 8.89-157.55s29.34-13.09 78.01-13.94c68.35-1.17 161 4.39 192.78 29.8 19.94 15.92-3.14 177.28-10.14 268.95z"/><path class="st12" d="M722.48 554.18c.64 8.86-5.32 16.85-13.78 18.23-35.5 5.81-68.66-14.85-68.03-16.27 4.71-10.65 11.51-21.4 5.41-67.79-.08-.61 4.35.25 11.04 1.89 19.91 4.89 59.95 16.67 61.72 17.19h.07s.49 9.76 2.14 27.25c.07.85.79 10.68 1.43 19.5z"/><path class="st15" d="M721.05 534.7c-29.73 7.07-74.1-38.46-74.1-38.46a46.39 46.39 0 0 1 10.17-5.98c19.91 4.89 59.95 16.67 61.72 17.19h.07s.49 9.75 2.14 27.25z"/><path class="st12" d="M737.83 506.32s-13.69 4.91-31.14 7.26c-25.52 3.45-59.07 1.41-69.61-29.46-17.75-51.96-40.43-83.12 11.81-104.34 27.97-11.36 45.86-11.96 58.01-7.63 10.56 3.74 16.78 11.22 21.5 18.61 10.15 15.9 30.56 106.46 9.43 115.56z"/><path class="st14" d="M732.36 359.37c11.8 2.87 17.11 21.46 5.88 29.19-20.14 13.86-44.75 8.42-53.82 12.45-12.99 5.77-15.33 27.57-15.56 34.49-.23 6.93-1.76 10.98-19.41 6.84-2.89-.68-7.11-.11-9.77 1.69-7.05 4.76 6.02 25.87 8.84 30.43 0 0 4.06 15.08-4.95 22.42-1.09.88-18.79 8.61-61.45-56.66-6.7-10.25-13.11-33.33-2.75-55.55 10.34-22.23 42.33-49.75 80.71-49.75 30.37-.02 47.31 18.38 72.28 24.45z"/><path class="st0" d="M738.22 472.77s1.09 6.73-14.55 12.09c0 0-13.13 4.51-15.53-2.39.01 0 10.44-9.93 30.08-9.7z"/><path class="st22" d="m614.92 920.23-21.54 21.72c-26.13-3.48-46.01-10.13-60.79-19.08l11.01-195.08c13.92-21.63 25.44-35.8 25.44-35.8 11.05 105.49 45.88 228.24 45.88 228.24zM813.14 855.05c-.37 4.91-.74 9.57-1.09 13.94l-53.22 16.03v-69.37L781.62 840l31.52 15.05z"/><path class="st0" d="m660.92 436.42-22.83 9.61s-.77.63-.5 4.23c.11 1.48 1.18 4.75 1.18 4.75l23.96-7.31v-11.28h-1.81z"/><path class="st12" d="M658.02 452.69c-.56-.56-3.56-16.05-18.35-10.46-14.79 5.59-1.5 25.25 9.17 27.31 10.68 2.06 9.18-16.85 9.18-16.85z"/><path class="st22" d="M789.76 801.76s37.32-13.18 23.09-60.69c0 0-8.33 30.3-44.99 30.35-36.65.04 21.9 30.34 21.9 30.34z"/><path class="st23" d="M765.86 716.52c-5.04-2.39-11.23-2.31-16.19.26-1.08-1.85-2.14-3.73-3.19-5.58-5.97 1.79-9.77 8.9-7.89 14.85.95 3 3.04 5.54 3.88 8.56.82 3.04-.43 7.12-3.56 7.52-3.73 0-4.81-5.02-5.15-8.73-.34-3.73-3.34-8.52-6.58-6.66.35-6.75.67-13.5 1.01-20.24-6.06-2.42-13.32-1.64-18.71 2.05 1.94-3.84 2.37-8.43 1.19-12.55-3.86-1.83-7.8-3.71-12.05-3.99-4.25-.28-8.92 1.36-11 5.09-2.05 3.73-.22 9.4 3.97 10.22-5.17 1.19-10.89 2.74-13.71 7.24-2.83 4.5.52 12.29 5.69 11.1-4.36 2.54-8.71 5.11-13.07 7.65 3.54 1.81 6.14 5.35 6.79 9.25-5.59-2.05-12.53 1.08-14.68 6.64-2.35-5.48-2.39-11.88-.09-17.38 1.77-4.25 4.12-10.56-.17-12.27-1.27-.5-2.72-.26-4.05.04-8.69 1.88-17.12 5.02-24.88 9.34-3.97 17.96 11 35.92 28.65 41.05 17.66 5.11 36.65.41 53.79-6.25 17.23-6.68 37.25-11.86 53.6-20.31 17.66-9.12-.52-24.47-4.05-16.08.22-.99 1.85-10.15.45-10.82z"/><path style="fill:#c1514c" d="M791.8 740.52H622.96v229.24H791.8V740.52z"/><path class="st23" d="M665.93 689.83c.04-.73.09-1.47.13-2.2 3.9-1.79 8.49-2.59 12.46-.95 3.95 1.62 6.81 6.25 5.46 10.31-1.36 4.05-7.65 5.71-10.2 2.29 2.61 3.9 3.45 9.29.97 13.28-2.46 4.01-8.71 5.48-12.07 2.22-3.3-3.19-2.52-8.56-1.49-13.02-3.9 1.29-8.41 1.21-11.86-1.01-3.45-2.22-5.46-6.83-3.95-10.65 1.94-4.89 8.06-6.4 13.3-6.64 2.8-.11 6.68 1.06 6.25 3.84l1 2.53zM728.65 694.51c-.32.65-.67 1.29-.99 1.96-4.27.13-8.82-.95-11.81-3.99-3-3.06-3.82-8.43-.99-11.64 2.85-3.19 9.27-2.26 10.29 1.9-.88-4.61.47-9.9 4.31-12.61 3.84-2.69 10.15-1.62 11.99 2.72 1.77 4.21-1.06 8.84-3.75 12.55 4.1.34 8.21 2.2 10.52 5.58 2.31 3.38 2.33 8.43-.56 11.34-3.69 3.75-9.92 2.74-14.83.88-2.63-.97-5.74-3.58-4.25-5.97l.07-2.72z"/><path class="st25" d="M613.07 740.52H800v16.1H613.07z"/><path class="st0" d="M644.88 756.62h26.39v213.14h-26.39zM692.88 756.62h26.39v213.14h-26.39zM740.87 756.62h26.39v213.14h-26.39z"/><g><path class="st12" d="M585.34 929.76s25.21 40.18 38.43 48.04c8.99 5.34 49.75 4.37 53.12-5.55 2.36-6.95-21.62-5.87-25.05-7.77-6.31-3.49-8.05-10.63-6.83-13.2 1.22-2.56 20.45 16.52 20.52 9.75.08-6.78-16.82-26.33-21.55-29.62-4.73-3.29-23.95-5.23-29.06-11.16-5.11-5.95-29.58 9.51-29.58 9.51z"/></g><g><path class="st16" d="M563.95 567.07s-33.1 2.13-60.25 52.85-36.26 134.36-25.51 201.66c3.25 20.38 25.31 69.52 115.18 120.37 0 0 25.58-14.68 21.54-21.71 0 0-52.55-94.29-52.96-137.81-.53-56.1 6.86-83.45 9.62-111.79 2.75-28.33-7.62-103.57-7.62-103.57z"/></g><g><path class="st12" d="M793.05 831.03c3.31-6.64 3.4-14.41.39-21.19-3.83-8.63-9.47-20.64-12.97-25.04-5.71-7.18-12.45-27.5-17.29-24.25-4.85 3.25 1.78 17.73-2.26 22.46-4.04 4.72-44.8-10.76-48.23-5.19-3.43 5.57-4.16 24.09 10.29 31.62 14.45 7.54 50.12 26.51 58.63 30.57 4.52 2.15 8.56-3.2 11.44-8.98z"/></g><g><path class="st16" d="M789.76 801.76s-14.36 27.23-11.74 43.02c0 0 49.36 37.11 84.63 27.3 35.28-9.81-27.71-70.32-27.71-70.32h-45.18z"/></g></g><g><path class="st11" d="M1551.8 807.5c1.13-1.7 1.73-2.74 1.73-2.74-17.13-50.63-63.76-69.72-63.76-69.72-5.72-4.36-21.94-7.95-41.89-10.01.1-8.57-.74-22.77-1.51-33.68 10.67-7.11 19.19-18.05 24.16-31.23 10.46-7.83 13.82-20.66 19.24-32.56 8.54-18.72 3.82-77.52-14.45-85.74-18.27-8.22-35.66-1.89-35.66-1.89 2.25-3.74 8.55-5.43 8.55-5.43-14.29-6.18-49.74 3.93-79.17 24.35 0 .01-.01.01-.01.01-16.3 11.3-21.82 29.1-23.05 45.28-1.01 13.03.76 25.02 1.93 31.73 2.62 15.04 20.28 31.69 20.28 31.69h.01c5.44 10.58 13.33 19.27 22.76 25.02-1.03 9.66-2.27 22.95-2.27 31.24-17.46 1.15-33.2 3.84-43.38 8.49-3.28 1.02-46.19 15.5-56.02 80.47 0 0 1.8 6.08 9.67 12.58-5.54 31.3-9.54 71.44 1.49 90.06 7.07 11.94 20.74 21.69 35.3 29.29l-.24 24.4c-24.75 12.11-29.83 37.64-26.24 65.24h233.42c14.93-38.69 19.82-81.54-21.48-96.73-.47-.17-.94-.33-1.42-.48.02-31.57.04-72.7-.2-100.74.87-.38 1.71-.79 2.54-1.2l-.51 3.26c.02-.01 45.99-6.44 30.18-30.96zm-215.58 90.94c-.39-1.2-.64-2.37-.69-3.49-.37-8.39.26-24.46 1.1-40.04l-.41 43.53z"/></g><g><path class="st26" d="M1514.83 627.55c-8.54 18.73-11.92 39.76-45.99 40-34.06.23-75.59 0-75.59 0s-17.66-16.65-20.28-31.69c-1.17-6.71-2.94-18.69-1.93-31.73 1.24-16.18 6.75-33.97 23.05-45.28 0 0 .01 0 .01-.01 29.43-20.42 64.88-30.53 79.17-24.35 0 0-6.3 1.69-8.55 5.43 0 0 17.39-6.34 35.66 1.89 18.27 8.22 22.99 67.02 14.45 85.74z"/><path class="st2" d="M1383.9 921.35s-32.26 79.47-39.46 127.87c-1.75 11.75 9.23 9.13 17 9.13h158.66c8.7 0 40.66-9.87 39.54-23.25-3.93-47.12-23.78-90.65-36.19-109.29-18.49-27.79-139.55-4.46-139.55-4.46z"/><path class="st16" d="M1362.04 819.73s-24.72-65.87 3.37-84.7 132.85-12.63 149.42 0c16.57 12.63 28.09 56.4 29.21 71.03 1.12 14.62.81 125.86.81 164.05 0 0-72.91 47.33-184.31 4.22l1.5-154.6z"/><path class="st12" d="M1417.41 680.54s-5.59 44.64-2.94 50.38c6.21 13.4 51.49 13.11 57.75 1.33 2.43-4.57-1.95-56.13-1.95-56.13l-52.86 4.42z"/><path d="M1415.84 691.82s9.19 16.56 25.32 16.68c22.93.16 31.05-20.68 31.05-20.68l-56.37 4z" style="fill:#e8945b"/><ellipse class="st12" cx="1442.78" cy="633.44" rx="57.6" ry="66.76"/><path class="st0" d="M1421.96 669.28c-1.37.23 3.17 10.74 20.9 10.77 14.68.02 17.86-9.88 17.86-9.88s-12.49-5.27-38.76-.89z"/><path class="st23" d="M1492.08 811.84c-4.09-1.94-9.1-1.87-13.11.21-.87-1.5-1.73-3.02-2.58-4.52-4.84 1.45-7.91 7.21-6.39 12.03.77 2.43 2.46 4.49 3.14 6.93.66 2.46-.35 5.76-2.88 6.09-3.02 0-3.89-4.07-4.17-7.07-.28-3.02-2.71-6.9-5.33-5.39.28-5.46.54-10.93.82-16.39-4.91-1.96-10.79-1.33-15.16 1.66 1.57-3.11 1.92-6.83.96-10.16-3.13-1.48-6.32-3-9.76-3.23-3.44-.23-7.23 1.1-8.9 4.12-1.66 3.02-.18 7.61 3.21 8.28-4.19.96-8.82 2.22-11.1 5.87-2.29 3.65.42 9.95 4.61 8.99-3.53 2.06-7.05 4.14-10.58 6.2 2.86 1.47 4.98 4.33 5.5 7.49-4.52-1.66-10.14.87-11.89 5.38-1.9-4.43-1.94-9.62-.07-14.07 1.43-3.44 3.33-8.55-.14-9.93-1.03-.4-2.2-.21-3.28.04a73.64 73.64 0 0 0-20.15 7.56c-3.21 14.54 8.9 29.09 23.21 33.24 14.3 4.14 29.68.33 43.56-5.06 13.95-5.41 30.17-9.6 43.41-16.45 14.3-7.39-.42-19.82-3.28-13.03.16-.83 1.48-8.25.35-8.79z"/><path style="fill:#f96058" d="M1513.08 831.27h-136.73v185.65h136.73V831.27z"/><path class="st23" d="M1411.15 790.22c.04-.59.07-1.19.1-1.78 3.16-1.45 6.88-2.09 10.09-.77 3.19 1.31 5.52 5.06 4.42 8.35-1.1 3.28-6.2 4.63-8.26 1.85 2.11 3.16 2.79 7.53.79 10.75-1.99 3.25-7.05 4.44-9.78 1.8-2.67-2.58-2.04-6.93-1.2-10.55-3.16 1.05-6.81.98-9.6-.82-2.79-1.8-4.42-5.54-3.2-8.63 1.57-3.96 6.53-5.18 10.77-5.38 2.27-.09 5.41.86 5.06 3.11l.81 2.07zM1461.94 794.01c-.26.52-.54 1.05-.8 1.59-3.46.1-7.14-.77-9.57-3.23-2.43-2.48-3.09-6.83-.8-9.43 2.3-2.58 7.51-1.83 8.33 1.54-.72-3.74.38-8.01 3.49-10.21 3.11-2.18 8.22-1.31 9.71 2.2 1.43 3.4-.86 7.16-3.04 10.16 3.32.28 6.65 1.78 8.52 4.52 1.87 2.74 1.89 6.83-.45 9.18-2.99 3.04-8.03 2.22-12.01.72-2.13-.79-4.64-2.9-3.44-4.84l.06-2.2z"/><path class="st25" d="M1368.34 831.27h151.38v13.04h-151.38z"/><path class="st0" d="M1394.1 844.31h21.37v172.61h-21.37zM1432.97 844.31h21.37v172.61h-21.37zM1471.84 844.31h21.37v172.61h-21.37z"/><path d="M1407.87 1202.2s61.17-225.48 99.07-242.35c37.9-16.87 63.96 10.92 60.01 49.19-3.95 38.27-119.29 204.85-119.29 204.85l-39.79-11.69z" style="fill:#ea9f6c"/><path d="M1409.35 1159.31s24.49 17.89 58.28 22.84l-42.04 81.17-29.66-36.2 13.42-67.81z" style="fill:#e3f2ff"/><path class="st2" d="M1395.92 1227.12s-18.94 23.16-23.41 32.86c-4.46 9.7 15.67 21.03 28.54 27.04 12.88 6.01 22.28.99 27.09-12.25 4.81-13.24 7.61-31.09 7.61-31.09l-39.83-16.56z"/><path class="st2" d="M1399.51 1231.5s.78-9.81 8.55-9.03c7.77.78 20.3 6.86 21.51 11.86 1.2 5.01-1.26 10.48-1.26 10.48l-28.8-13.31z"/><path class="st23" d="M1422.37 1253.93c-13.21-12.42-26.07-13.49-26.2-13.5l.08-1.12c.13.01 13.39 1.12 26.89 13.8l-.77.82zM1419.31 1260.73c-13.19-12.39-26.07-13.49-26.2-13.5l.08-1.12c.13.01 13.39 1.12 26.89 13.8l-.77.82z"/><path d="M1442.52 1073.05s32.16-161.76 103.77-135.43c81.73 30.05-17.39 168.46-17.39 168.46s-58.13-.28-86.38-33.03z" style="fill:#233f77"/><g><path class="st12" d="M1492.02 1237.22s-55.01-227.06-92.44-244.95c-37.43-17.89-64.23 9.17-61.32 47.53 2.91 38.36 113.67 208.02 113.67 208.02l40.09-10.6z"/></g><g><path class="st10" d="M1460.89 1107.18c.54.03-28.04-173-100.04-138.21-68.7 33.2 12.8 168.88 12.8 168.88s58.11 1.29 87.24-30.67z"/></g><g><path class="st12" d="M1333.4 782.65s-27.33 99.9-7.87 132.76c19.45 32.86 89.02 49.25 89.02 49.25l2.89-17.45s-55.99-32.79-56.84-52.26c-.86-19.47 3.7-80.36 3.7-80.36l-30.9-31.94z"/></g><g><path class="st12" d="M1556.86 772.98s42.2 84.07 80.43 94.62c12.87 3.55 74.52 1.12 74.52 1.12l2.94 19.71s-90.77 27.38-114.36 10.17c-23.59-17.22-53.68-60.16-53.68-60.16l10.15-65.46z"/></g><g><path class="st16" d="M1370.59 732.24s-46 12.97-56.23 80.53c0 0 6.85 23.32 52.87 27.51l3.36-108.04z"/></g><g><path class="st16" d="M1514.84 735.03s46.62 19.09 63.76 69.72c0 0-18.93 33.03-48.79 35.53l2.44-20.92-17.41-84.33z"/></g><g><path class="st12" d="M1417.44 925.79s10.05-6.51 17.07-5.95 17.68-2.5 17.45-.03c-.23 2.47-11.72 3.7-9.44 5.99 2.28 2.29 23.27 1.74 22.1 5.7-3.73 12.66-9.96 9.69-22.1 11.75-12.14 2.06-27.97 0-27.97 0l2.89-17.46z"/></g><g><path class="st12" d="M1725.1 893.12s14.99-6.07 20.89-4.38c5.9 1.68 7.02 11.8 0 15.73-7.02 3.93-10.39 7.86-30.61 5.34l9.72-16.69z"/></g><g><path class="st23" d="M1415.03 1189.36s30.08-3.86 58.02-23.5l25.31 87.84-46.43-5.88-18.84-28.96-18.06-29.5z"/><path class="st2" d="M1451.93 1247.82s2.18 29.84 5.61 39.95c3.43 10.11 25.84 4.49 39.32 0s16.85-14.6 11.23-27.52-15.86-27.81-15.86-27.81l-40.3 15.38z"/><path class="st2" d="M1457.54 1248.53s-6.18-7.66 0-12.44c6.18-4.78 19.46-8.99 23.77-6.18 4.31 2.81 6.29 8.47 6.29 8.47l-30.06 10.15z"/><path class="st23" d="m1461.25 1257.32-.71-.87c.1-.08 10.49-8.4 29.01-8.47l.01 1.12c-18.13.07-28.21 8.14-28.31 8.22zM1463.72 1264.36l-.71-.87c.1-.08 10.49-8.4 29.01-8.48l.01 1.12c-18.14.08-28.21 8.14-28.31 8.23z"/></g><g><path class="st0" d="m1738.84 818.51-4.79-1.63 16.47-48.38 23.5-12.52 2.38 4.47-21.73 11.57z"/><path class="st9" d="M1706.45 913.73h40.01c3.11 0 5.68-2.42 5.88-5.52l5.69-91.41h-62.11l4.66 91.34a5.878 5.878 0 0 0 5.87 5.59z"/><path class="st0" d="M1694.91 822.32h65.18c2.09 0 3.79-1.7 3.79-3.79v-3.31c0-2.09-1.7-3.79-3.79-3.79h-65.18c-2.09 0-3.79 1.7-3.79 3.79v3.31c0 2.09 1.7 3.79 3.79 3.79z"/></g><g><path class="st12" d="M1756.85 864.57s-16.85-1.85-14.32 9.89c2.53 11.74 11.79 18.2 14.32 10.9 2.53-7.31 4.2-20.74 0-20.79z"/></g><g><path class="st26" d="M1505.17 579.99s-9.46 18.82-14.58 16.2c-5.11-2.61-6.67-.47-18.39 9.64-11.72 10.11-50.35-5.9-60.46-10.11-10.11-4.21-19.94 11.24-22.41 12.81 0 0-10.5-2.33-18.28-4.4 1.24-16.18 6.75-33.97 23.05-45.28 0 0 .01 0 .01-.01 26.34-3.28 67.4-7.53 70.14-8.81 4.01-1.86 40.92 29.96 40.92 29.96z"/></g></g><g><path class="st2" d="M460.04 930.6h-89.23c-8.88 0-16.08-7.2-16.08-16.08v-43.27c0-8.88 7.2-16.08 16.08-16.08h89.23c8.88 0 16.08 7.2 16.08 16.08v43.27c0 8.88-7.2 16.08-16.08 16.08z"/></g><g><path class="st2" d="M354.73 886h100.45v325.63H354.73z"/></g><g><path class="st10" d="M1134.3 912.19h-96.24c-8.08 0-14.63-6.55-14.63-14.63v-31.14c0-8.08 6.55-14.63 14.63-14.63h96.24c8.08 0 14.63 6.55 14.63 14.63v31.14c-.01 8.08-6.56 14.63-14.63 14.63z"/></g><g><path class="st10" d="M1605.93 989.01h92.16c9.21 0 16.67-7.46 16.67-16.67v-45.08c0-9.21-7.46-16.67-16.67-16.67h-92.16c-9.21 0-16.67 7.46-16.67 16.67v45.08c0 9.21 7.46 16.67 16.67 16.67z"/></g><g><path class="st10" d="M1732.04 989.01h92.16c9.21 0 16.67-7.46 16.67-16.67v-45.08c0-9.21-7.46-16.67-16.67-16.67h-92.16c-9.21 0-16.67 7.46-16.67 16.67v45.08c0 9.21 7.47 16.67 16.67 16.67z"/></g><g><path d="M1423.97 391.83c0-6.51 5.28-11.79 11.79-11.79s11.79 5.28 11.79 11.79c0 6.51-5.28 11.79-11.79 11.79s-11.79-5.29-11.79-11.79z" style="fill:#fcfcfc"/></g><g><path class="st0" d="M2168.84 517.74s1.02 6.16 8.4 7.8c7.39 1.64 15.18-5 15.18-5s-11.74-4.44-23.58-2.8z"/></g></svg>