<svg xmlns="http://www.w3.org/2000/svg" viewBox="0 0 500 500" style="enable-background:new 0 0 500 500" xml:space="preserve"><style>.st0{fill:#ebebeb}.st1{fill:#e0e0e0}.st2{fill:#f0f0f0}.st5{fill:#407bff}.st8{fill:#263238}.st9{fill:#233862}.st11{fill:#fff}.st12{fill:#8c9df4}.st13{opacity:.3;fill:#fff}.st15{opacity:.2;fill:#8c9df4}</style><g id="Background_Complete"><path class="st0" d="M0 382.4h500v.25H0zM428.22 398.49h21.68v.25h-21.68zM310.56 393.31h34.11v.25h-34.11zM396.59 389.21h44.53v.25h-44.53zM161.88 394.25h11.14v.25h-11.14zM114.58 394.25h38.39v.25h-38.39zM66.31 390.03h27.7v.25h-27.7zM237.01 337.8H43.92c-3.15 0-5.71-2.56-5.71-5.71V60.66c0-3.15 2.56-5.71 5.71-5.71h193.1c3.15 0 5.71 2.56 5.71 5.71v271.43c-.01 3.15-2.57 5.71-5.72 5.71zM43.92 55.2c-3.01 0-5.46 2.45-5.46 5.46v271.43c0 3.01 2.45 5.46 5.46 5.46h193.1c3.01 0 5.46-2.45 5.46-5.46V60.66c0-3.01-2.45-5.46-5.46-5.46H43.92zM453.31 337.8h-193.1c-3.15 0-5.71-2.56-5.71-5.71V60.66c0-3.15 2.56-5.71 5.71-5.71h193.1c3.15 0 5.71 2.56 5.71 5.71v271.43c0 3.15-2.56 5.71-5.71 5.71zM260.21 55.2c-3.01 0-5.46 2.45-5.46 5.46v271.43c0 3.01 2.45 5.46 5.46 5.46h193.1c3.01 0 5.46-2.45 5.46-5.46V60.66c0-3.01-2.45-5.46-5.46-5.46h-193.1z"/><g><path class="st0" d="m216.07 200.88.45-13.14-8.07-2.64c-.33-4.49-1.08-8.92-2.15-13.2l6.84-5.04-4.65-12.34-8.46.68a78.173 78.173 0 0 0-7.04-11.35l4.38-7.31-9.01-9.61-7.56 3.87c-3.41-2.89-7-5.52-10.84-7.83l1.22-8.39-12-5.45-5.5 6.44a80.66 80.66 0 0 0-13.02-3.05l-2.04-8.23-13.18-.45-2.6 8.07c-4.53.37-8.92 1.08-13.2 2.15l-5.08-6.8-12.34 4.61.68 8.46a81.05 81.05 0 0 0-11.35 7.07l-7.28-4.38-9.65 8.97 3.87 7.6c-2.89 3.37-5.52 7-7.8 10.84l-8.39-1.26-5.48 12 6.48 5.5c-1.36 4.19-2.41 8.56-3.05 13.02l-8.26 2.08-.45 13.14 8.1 2.64c.33 4.52 1.08 8.92 2.15 13.19l-6.84 5.04 4.65 12.34 8.46-.68c2.02 3.99 4.39 7.79 7.04 11.35l-4.38 7.31 9.01 9.61 7.56-3.87c3.37 2.89 7 5.52 10.84 7.84l-1.26 8.39 12 5.45 5.53-6.44a80.66 80.66 0 0 0 13.02 3.05l2.04 8.23 13.18.45 2.6-8.07c4.52-.37 8.92-1.08 13.19-2.15l5.04 6.8 12.34-4.61-.65-8.46c3.99-2.05 7.75-4.42 11.35-7.08l7.28 4.38 9.65-8.97-3.87-7.6c2.89-3.37 5.52-7 7.8-10.84l8.39 1.26 5.48-12-6.48-5.5c1.36-4.19 2.41-8.53 3.05-13.02l8.26-2.07zm-88.79 42.57c-28.78-.99-51.31-25.12-50.33-53.9.99-28.81 25.12-51.35 53.9-50.36 28.78.99 51.31 25.12 50.33 53.93-.99 28.78-25.13 51.32-53.9 50.33zM440.96 157.42l3.31-3.09-1.32-2.61c1.01-1.18 1.91-2.44 2.69-3.74l2.9.44 1.88-4.14-2.23-1.9c.48-1.46.83-2.97 1.05-4.48l2.85-.71.15-4.54-2.79-.9c-.12-1.54-.36-3.05-.73-4.55l2.35-1.75-1.6-4.25-2.91.23c-.69-1.35-1.5-2.66-2.43-3.92l1.51-2.5-3.1-3.32-2.6 1.33a28.237 28.237 0 0 0-3.74-2.69l.42-2.9-4.13-1.89-1.9 2.23a28.08 28.08 0 0 0-4.49-1.04l-.71-2.84-4.54-.16-.91 2.8c-1.53.12-3.05.36-4.55.74l-1.74-2.35-4.26 1.59.24 2.92c-1.35.69-2.68 1.5-3.92 2.43l-2.52-1.51-3.31 3.09 1.33 2.62a26.754 26.754 0 0 0-2.69 3.74l-2.9-.44-1.88 4.14 2.23 1.9c-.48 1.46-.83 2.97-1.05 4.48l-2.85.71-.15 4.54 2.79.9c.12 1.53.36 3.05.73 4.55l-2.35 1.74 1.6 4.25 2.92-.22c.69 1.35 1.5 2.66 2.43 3.92l-1.51 2.5 3.1 3.32 2.6-1.33c1.19 1.01 2.44 1.91 3.74 2.69l-.43 2.89 4.13 1.89 1.9-2.22c1.47.47 2.97.81 4.49 1.04l.71 2.84 4.54.16.91-2.8c1.53-.12 3.05-.36 4.55-.74l1.74 2.35 4.26-1.59-.24-2.92c1.35-.69 2.67-1.49 3.92-2.43l2.51 1.5zm-23.62-19.13c-2.44-2.61-2.3-6.71.31-9.14a6.477 6.477 0 0 1 9.15.31 6.468 6.468 0 0 1-.32 9.15 6.474 6.474 0 0 1-9.14-.32zM319.99 292.34l-10.34-7.14c0-.01 0-.02-.01-.02a56.247 56.247 0 0 0-4.16-10.77l2.65-10.4-15-16.06-10.56 1.93a56.601 56.601 0 0 0-10.45-4.88c-.01 0-.02 0-.03-.01l-6.42-10.81-21.96-.75-7.14 10.34c-.01 0-.03.01-.04.01a56.79 56.79 0 0 0-10.76 4.15l-10.39-2.65-16.06 15 1.93 10.54s0 .01-.01.01a55.6 55.6 0 0 0-4.88 10.49l-10.81 6.42-.75 21.97 10.35 7.15c1.02 3.78 2.39 7.39 4.15 10.82l-2.64 10.37 15 16.06 10.49-1.92c3.31 1.96 6.83 3.61 10.55 4.89h.01l6.41 10.79 21.96.75 7.14-10.33c3.8-1.02 7.42-2.43 10.85-4.16l10.35 2.64 16.06-15-1.93-10.54c1.99-3.31 3.61-6.82 4.88-10.5l10.81-6.42.75-21.97zm-68.45 33.39c-13.65-.47-24.32-11.93-23.85-25.55.47-13.65 11.89-24.32 25.55-23.85 13.65.47 24.32 11.89 23.85 25.55-.47 13.61-11.9 24.31-25.55 23.85zM343.55 229.95h-.07l-17.32-.59c-.72-.02-1.38-.41-1.74-1.03l-4.66-7.85a46.9 46.9 0 0 1-7.28-3.38l-7.51 1.37c-.71.13-1.43-.11-1.92-.64l-11.83-12.66a2.11 2.11 0 0 1-.5-1.96l1.89-7.41a45.45 45.45 0 0 1-2.86-7.47l-7.53-5.2c-.59-.41-.94-1.09-.91-1.81l.59-17.32c.02-.72.41-1.38 1.03-1.74l7.87-4.67c.93-2.55 2.06-4.99 3.37-7.25l-1.38-7.53c-.13-.71.11-1.43.64-1.92l12.67-11.83a2.11 2.11 0 0 1 1.96-.5l7.43 1.9c2.41-1.17 4.9-2.13 7.45-2.87l5.2-7.53c.41-.59 1.08-.96 1.81-.91l17.32.59c.72.02 1.38.41 1.74 1.03l4.67 7.87c2.48.91 4.91 2.04 7.23 3.37l7.55-1.38c.71-.13 1.43.11 1.92.64l11.83 12.67c.49.53.68 1.27.5 1.96l-1.9 7.44c1.17 2.41 2.13 4.9 2.87 7.45l7.52 5.2c.59.41.93 1.09.91 1.81l-.59 17.32c-.02.72-.41 1.38-1.03 1.74l-7.87 4.67c-.93 2.55-2.06 4.98-3.37 7.24l1.38 7.54c.13.71-.11 1.43-.64 1.92l-12.66 11.82c-.53.49-1.26.68-1.96.5l-7.4-1.89a47.115 47.115 0 0 1-7.49 2.87l-5.19 7.52c-.4.56-1.05.9-1.74.9zm-16.09-4.77 15.01.51 4.97-7.2c.28-.41.71-.71 1.19-.84 2.76-.74 5.51-1.79 8.15-3.13 0 0 .01 0 .01-.01.44-.22.96-.28 1.46-.15l7.04 1.79 10.98-10.25-1.31-7.17a2.1 2.1 0 0 1 .27-1.47c1.45-2.4 2.68-5.04 3.65-7.83.16-.5.5-.91.94-1.17l7.52-4.47.51-15.01-7.2-4.97c-.38-.26-.66-.64-.8-1.07-.02-.05-.03-.11-.05-.17-.75-2.76-1.8-5.47-3.11-8.05-.23-.46-.29-.98-.16-1.48l1.8-7.08-10.25-10.98-7.19 1.32c-.5.09-1.02 0-1.46-.26-2.5-1.49-5.14-2.72-7.85-3.67a1.78 1.78 0 0 1-.44-.21 2.22 2.22 0 0 1-.71-.72l-4.47-7.53-15.01-.51-4.97 7.2c-.3.43-.74.73-1.24.85-2.78.76-5.48 1.8-8.05 3.11-.46.23-.98.29-1.48.16l-7.08-1.8-10.98 10.25 1.31 7.17c.08.45.02.92-.19 1.32a41.856 41.856 0 0 0-3.75 8.03c-.16.47-.49.87-.92 1.12l-7.53 4.47-.51 15.01 7.21 4.98c.41.28.71.7.84 1.19.78 2.88 1.82 5.61 3.11 8.12.07.14.13.3.17.45.08.34.08.69 0 1.03l-1.8 7.05 10.25 10.98 7.14-1.31c.5-.09 1.02 0 1.45.26 2.54 1.5 5.2 2.74 7.89 3.66.49.15.91.48 1.17.93l4.47 7.55zm24.78-94.81zm-15.51 75.84c-.37 0-.74-.01-1.11-.02-17.45-.6-31.15-15.28-30.56-32.72.6-17.45 15.3-31.15 32.72-30.56 17.45.6 31.15 15.28 30.56 32.72-.29 8.44-3.85 16.27-10.03 22.04-5.91 5.54-13.54 8.54-21.58 8.54zm-.04-59.09c-14.7 0-26.9 11.7-27.41 26.5-.52 15.12 11.36 27.84 26.48 28.36 7.33.25 14.31-2.37 19.67-7.38 5.35-5 8.44-11.79 8.69-19.1.52-15.12-11.36-27.84-26.48-28.36-.32-.01-.63-.02-.95-.02z"/><path class="st1" d="m383.44 105.32-7.17-1.92-1.93-7.18 2.81-2.8 2.96 6.13 6.14 2.96z"/><path class="st1" d="M383.88 100.52a3.35 3.35 0 0 0 0-4.74 3.338 3.338 0 0 0-4.73.01l3.57-5.35 4.79 2.42 1.05 5.03-4.68 2.63z"/><path class="st2" d="m376.58 93.98 5.26-5.26 7.17 1.93 1.93 7.17-5.26 5.26-7.17-1.93-1.93-7.17zm9.55 4.3a3.35 3.35 0 0 0 0-4.74 3.338 3.338 0 0 0-4.73.01 3.326 3.326 0 0 0 0 4.72 3.338 3.338 0 0 0 4.73.01z"/><g><path class="st1" d="m90.22 296.71 3.85-1.04 1.03-3.84-1.5-1.51-1.59 3.29-3.3 1.59z"/><path class="st1" d="M89.98 294.13c-.7-.7-.7-1.84 0-2.55.7-.7 1.84-.7 2.54.01l-1.91-2.87-2.57 1.3-.56 2.7 2.5 1.41z"/><path class="st2" d="m93.9 290.62-2.82-2.82-3.85 1.03-1.03 3.85 2.82 2.82 3.85-1.03 1.03-3.85zm-5.12 2.31c-.7-.7-.7-1.84 0-2.55.7-.7 1.84-.7 2.54.01s.7 1.83 0 2.54c-.7.69-1.84.7-2.54 0z"/></g><g><path class="st2" d="m76.36 85.66 3.19 3.19c.83.83 2.19.83 3.03 0 .83-.83.83-2.19 0-3.02l-3.19-3.19c-.83-.83-2.19-.83-3.02 0-.84.83-.84 2.19-.01 3.02z"/><path class="st1" d="M74.11 77.71c2.46-.88 5.13.27 5.96 2.58.83 2.31-.49 4.9-2.95 5.79-2.46.88-5.13-.27-5.96-2.58-.83-2.32.49-4.91 2.95-5.79z"/><path transform="scale(-1) rotate(70.244 116.427 -107.508)" class="st2" d="M74.93 76.84h1.37v10.1h-1.37z"/></g></g></g><g id="Shadow_1_"><ellipse id="_x3C_Path_x3E__373_" cx="250" cy="416.24" rx="193.89" ry="11.32" style="fill:#f5f5f5"/></g><g id="Oops_x21_"><path class="st8" d="M86.72 120.65c-1-4.4-.55-8.11 1.34-11.12 1.9-3.01 5.03-5.01 9.41-6.01 4.49-1.02 8.22-.6 11.2 1.26 2.98 1.86 4.96 4.96 5.95 9.3.72 3.15.77 5.86.17 8.12-.6 2.26-1.78 4.18-3.53 5.76-1.75 1.58-4.12 2.71-7.12 3.39-3.04.69-5.67.78-7.88.26s-4.18-1.68-5.89-3.5c-1.72-1.83-2.94-4.31-3.65-7.46zm8.34-1.86c.62 2.72 1.57 4.57 2.85 5.52 1.28.96 2.79 1.24 4.54.84 1.79-.41 3.04-1.3 3.76-2.69s.73-3.59.05-6.61c-.58-2.54-1.51-4.28-2.8-5.22-1.29-.94-2.81-1.21-4.57-.81-1.68.38-2.9 1.28-3.64 2.7-.75 1.44-.82 3.52-.19 6.27zM118.59 117.35c-.68-2.98-.23-5.67 1.34-8.06 1.57-2.39 4.07-3.97 7.49-4.75 3.91-.89 7.13-.43 9.64 1.39 2.02 1.46 3.34 3.53 3.95 6.21.68 3.01.25 5.7-1.31 8.07s-4.1 3.96-7.62 4.76c-3.14.71-5.86.5-8.16-.66-2.82-1.44-4.6-3.76-5.33-6.96zm7.51-1.73c.4 1.74 1.04 2.95 1.94 3.62.89.67 1.88.89 2.94.65 1.08-.25 1.87-.86 2.38-1.84.51-.98.55-2.38.14-4.19-.39-1.69-1.02-2.88-1.91-3.54-.89-.67-1.85-.89-2.88-.65-1.09.25-1.9.87-2.42 1.88-.52.99-.58 2.36-.19 4.07zM148.58 128.57l-6.13-26.98 7.01-1.59.66 2.89c.69-1.43 1.4-2.46 2.11-3.07.96-.82 2.1-1.39 3.43-1.69 2.61-.59 4.86-.05 6.74 1.62 1.88 1.67 3.16 3.98 3.83 6.93.74 3.25.52 5.91-.64 7.97-1.17 2.07-2.94 3.37-5.32 3.91-1.15.26-2.25.3-3.29.13a7.87 7.87 0 0 1-2.95-1.17l2.12 9.33-7.57 1.72zm3.61-18.86c.35 1.55.94 2.62 1.76 3.22.82.6 1.73.79 2.72.56.87-.2 1.52-.72 1.95-1.57.43-.85.44-2.14.05-3.85-.36-1.58-.93-2.67-1.71-3.28-.78-.6-1.61-.8-2.5-.6-.96.22-1.67.77-2.14 1.67-.47.88-.51 2.17-.13 3.85zM169.43 110.3l7.27-2.39c.51.81 1.08 1.35 1.72 1.6.64.25 1.42.28 2.34.07 1.01-.23 1.74-.62 2.19-1.17.36-.42.48-.86.37-1.34-.12-.54-.5-.89-1.13-1.06-.45-.12-1.58-.13-3.4-.04-2.7.14-4.61.13-5.71-.03-1.1-.16-2.1-.62-3-1.38-.9-.76-1.49-1.73-1.75-2.91-.29-1.29-.17-2.48.37-3.58s1.41-2.03 2.62-2.79c1.21-.76 2.92-1.39 5.12-1.89 2.33-.53 4.09-.74 5.28-.64 1.19.1 2.24.45 3.15 1.02.91.58 1.76 1.45 2.54 2.62l-6.94 2.31c-.33-.58-.74-.97-1.23-1.17-.68-.26-1.43-.29-2.27-.1-.85.19-1.43.48-1.75.87-.32.39-.43.8-.33 1.23.11.48.44.78.98.92.55.13 1.66.11 3.35-.07 2.55-.28 4.5-.31 5.82-.09 1.33.23 2.42.73 3.28 1.52.86.79 1.41 1.74 1.66 2.85.26 1.13.17 2.3-.27 3.52-.44 1.22-1.32 2.31-2.64 3.28-1.32.96-3.25 1.73-5.77 2.31-3.57.81-6.23.88-7.97.21-1.74-.68-3.04-1.9-3.9-3.68zM193.85 85.57l8.21-.05.04 6.3-1.51 12.67-5.08.03-1.62-12.65-.04-6.3zm.4 20.88 7.66-.04.04 6.77-7.66.04-.04-6.77z"/></g><g id="_x34_04"><path class="st9" d="M128.68 171.58c-.06 0-.12-.01-.18-.03-4.5-1.74-7.19-3.45-8.59-5.49-1.02.2-2.15.07-3.23-.44-1.05-.5-2.06-1.37-2.78-2.62-.68.52-1.51.66-2.43.38-1.02-.32-2.07-1.17-2.95-2.41-.56.4-1.13.46-1.55.43-2.97-.24-7-6.16-7.29-12.47-.01-.28.2-.51.48-.52.27-.02.51.2.52.48.27 5.99 4.11 11.33 6.37 11.51.37.04.67-.08.93-.28-1.36-2.38-2.06-5.78-1.02-9.41.86-3 1.62-4.18 2.53-3.96 1.72.43 1.5 6.97.58 11.29-.21.98-.51 1.68-.85 2.18.79 1.17 1.72 1.95 2.54 2.21.73.23 1.27.04 1.67-.35-.79-1.94-.95-4.57.12-7.94 1.4-4.43 1.97-4.55 2.31-4.62.24-.05.48.03.64.22.92 1.04-.18 7.92-1.34 11.32-.15.44-.34.83-.56 1.16.62 1.22 1.54 2.05 2.49 2.5.77.37 1.56.5 2.27.43-.09-.19-.17-.38-.24-.58-.79-2.15-.41-4.63 1.18-7.58 1.06-1.96 1.92-2.87 2.71-2.87.24 0 .67.09.99.66.87 1.61.24 6.92-1.48 9.55-.41.62-.97 1.09-1.62 1.4 1.34 1.76 3.88 3.31 7.95 4.89.26.1.39.39.29.65-.07.19-.26.31-.46.31zm-5.65-16.47s-.57 0-1.83 2.35c-1.45 2.68-1.81 4.89-1.13 6.76.08.23.18.45.3.67.53-.23.99-.6 1.32-1.1 1.4-2.14 2.07-6.54 1.55-8.26-.1-.36-.21-.42-.21-.42zm-7.18-4.21c-.26.49-.69 1.48-1.34 3.53-.86 2.71-.86 4.88-.38 6.55.03-.08.06-.17.09-.25 1.18-3.44 1.75-8.18 1.63-9.83zm-6.58-3.15c-.17.16-.65.79-1.35 3.22-.92 3.21-.35 6.14.73 8.25.21-.43.35-.93.45-1.4 1.03-4.92.73-9.36.17-10.07zM166.7 224c-1.52 0-3.13-.35-4.56-1.19a.496.496 0 0 1-.18-.68c.14-.24.45-.32.68-.18 3.57 2.09 8.18.63 9.13-.89.11-.18.21-.41.15-.67-1.41.15-3.15-.22-5.13-1.47-2.54-1.59-2.74-2.06-2.73-2.44.01-.22.14-.42.34-.52 1-.5 5.51 1.57 7.39 2.81.25.16.45.34.62.52.83-.2 1.48-.63 1.9-1.15.29-.35.49-.74.59-1.12-.07.01-.13.02-.2.02-1.6.16-3.2-.53-4.91-2.1-1.17-1.09-1.63-1.83-1.48-2.43.05-.19.21-.53.72-.65 1.38-.34 4.8 1.11 6.19 2.64.31.34.53.75.64 1.18 1.3-.61 2.68-1.99 4.32-4.27.16-.22.47-.28.7-.12.22.16.28.47.12.7-1.89 2.64-3.46 4.14-5.05 4.75-.06.7-.35 1.42-.87 2.04-.51.61-1.25 1.13-2.18 1.41.1.45.01.93-.28 1.39-.84 1.36-3.26 2.42-5.92 2.42zm-.89-6.94c.34.25.82.58 1.51 1.01 1.36.85 2.57 1.24 3.6 1.32-1.66-1.03-3.83-1.94-5.11-2.33zm3.49-4.25c.06.16.28.57 1.17 1.39 1.49 1.37 2.84 1.99 4.13 1.84.11-.01.21-.03.32-.05-.07-.3-.22-.58-.43-.83-1.41-1.53-4.51-2.51-5.19-2.35z"/><path class="st9" d="m179.94 222.63-15.58 2.83-14.15-77.21-30.06 5.46-48.99 87 5.26 28.71L139.26 258l4.3 23.48 30.06-5.46-4.3-23.48 15.58-2.83-4.96-27.08zm-78.85 14.32 25.96-45.57 7.24 39.54-33.2 6.03z"/><g><path class="st9" d="M305.43 142.99c-.58-5.33-1.65-10.07-3.2-14.22-1.55-4.14-3.88-8.21-6.99-12.19-3.11-3.98-7.35-7.44-12.7-10.37-5.36-2.93-12.43-4.97-21.22-6.11-18.29-2.38-32.55.86-42.78 9.74-10.23 8.88-16.96 25.88-20.2 51.01-1.32 10.22-1.64 19.67-.98 28.34.66 8.68 2.26 15.65 4.78 20.93 3.45 7.42 8.33 13.34 14.65 17.77 6.31 4.43 14.96 7.36 25.95 8.79 19.6 2.55 34.12-1.21 43.57-11.29 9.45-10.08 15.72-27.11 18.81-51.1 1.37-10.68 1.47-21.12.31-31.3z"/><path class="st8" d="M251.77 226.43c-2.4-.08-4.96-.3-7.61-.64-9.15-1.19-16.24-3.51-21.05-6.89-4.75-3.33-8.35-7.72-10.99-13.41l-.05-.1c-1.92-4.02-3.18-9.75-3.73-17.03-.61-7.89-.3-16.67.92-26.1 3.57-27.72 10.94-39.29 16.5-44.11 6.48-5.62 15.22-8.16 26.73-7.77 2.36.08 4.86.29 7.42.63 7.39.96 13.23 2.6 17.37 4.86 4.01 2.19 7.14 4.71 9.31 7.49 2.4 3.08 4.2 6.19 5.35 9.27 1.22 3.27 2.09 7.16 2.57 11.56 1.07 9.31.96 18.95-.29 28.72-2.77 21.54-8.13 36.67-15.92 44.98-5.8 6.16-14.47 8.96-26.53 8.54z"/><path class="st9" d="m271.34 143.29.13-3.79-2.33-.76c-.1-1.29-.31-2.57-.62-3.8l1.97-1.45-1.34-3.56-2.44.2c-.58-1.15-1.26-2.24-2.03-3.27l1.26-2.11-2.6-2.77-2.18 1.12c-.98-.83-2.02-1.59-3.12-2.26l.35-2.42-3.46-1.57-1.58 1.86a24.37 24.37 0 0 0-3.75-.88l-.59-2.37-3.8-.13-.75 2.33c-1.3.11-2.57.31-3.8.62l-1.46-1.96-3.56 1.33.2 2.44a22.94 22.94 0 0 0-3.27 2.04l-2.1-1.26-2.78 2.59 1.12 2.19c-.83.97-1.59 2.02-2.25 3.13l-2.42-.36-1.58 3.46 1.87 1.58c-.39 1.21-.7 2.47-.88 3.75l-2.38.6-.13 3.79 2.34.76c.1 1.3.31 2.57.62 3.8l-1.97 1.45 1.34 3.56 2.44-.2c.58 1.15 1.26 2.24 2.03 3.27l-1.26 2.11 2.6 2.77 2.18-1.12c.97.83 2.02 1.59 3.12 2.26l-.36 2.42 3.46 1.57 1.59-1.86c1.21.39 2.46.68 3.75.88l.59 2.37 3.8.13.75-2.33c1.3-.11 2.57-.31 3.8-.62l1.45 1.96 3.56-1.33-.19-2.44a22.94 22.94 0 0 0 3.27-2.04l2.1 1.26 2.78-2.59-1.12-2.19c.83-.97 1.59-2.02 2.25-3.13l2.42.36 1.58-3.46-1.87-1.58c.39-1.21.69-2.46.88-3.75l2.37-.6zm-25.6 12.27c-8.3-.28-14.79-7.24-14.51-15.54.28-8.31 7.24-14.8 15.54-14.52 8.3.28 14.79 7.24 14.51 15.55-.29 8.3-7.24 14.79-15.54 14.51z"/><path d="m287.12 212.87.27-2.55-1.53-.63c-.01-.88-.08-1.75-.23-2.59l1.4-.89-.71-2.47-1.66.01c-.34-.81-.73-1.58-1.2-2.31l.95-1.36-1.61-2-1.53.64c-.61-.61-1.27-1.17-1.99-1.67l.37-1.63-2.25-1.24-1.18 1.19c-.81-.34-1.64-.59-2.48-.79l-.28-1.64-2.55-.29-.63 1.53c-.88.01-1.74.09-2.59.24l-.89-1.41-2.47.72.01 1.66c-.8.34-1.57.73-2.31 1.2l-1.36-.96-2 1.61.64 1.53c-.59.61-1.17 1.27-1.67 1.99l-1.61-.36-1.24 2.25 1.18 1.16c-.33.82-.59 1.64-.79 2.49l-1.64.27-.27 2.55 1.53.64c-.01.87.08 1.73.23 2.58l-1.41.89.72 2.47H256c.34.8.73 1.57 1.2 2.3l-.96 1.36 1.6 2.01 1.54-.65c.61.61 1.27 1.17 1.99 1.67l-.37 1.63 2.25 1.24 1.18-1.18c.81.33 1.64.58 2.48.78l.28 1.64 2.55.29.63-1.54c.87-.01 1.74-.09 2.59-.24l.89 1.41 2.46-.72v-1.66c.8-.34 1.57-.73 2.31-1.2l1.35.96 2.01-1.6-.65-1.53c.61-.61 1.17-1.27 1.68-1.99l1.61.36 1.24-2.25-1.18-1.16c.33-.82.58-1.64.78-2.48l1.66-.28zm-12.87-1c-1.19 2.16-3.9 2.96-6.06 1.77a4.469 4.469 0 0 1-1.76-6.06 4.46 4.46 0 0 1 7.82 4.29z" style="opacity:.3;fill:#407bff"/><path class="st11" d="m301.29 169.65-2.98-2.06v-.01c-.29-1.08-.7-2.13-1.2-3.1l.76-3-4.32-4.63-3.04.56c-.94-.56-1.95-1.04-3.01-1.41h-.01l-1.85-3.12-6.33-.22-2.06 2.98h-.01c-1.08.29-2.12.7-3.1 1.2l-3-.76-4.63 4.32.56 3.04c-.57.95-1.04 1.97-1.41 3.02l-3.12 1.85-.22 6.33 2.98 2.06c.29 1.09.69 2.13 1.2 3.12l-.76 2.99 4.32 4.63 3.02-.55c.95.56 1.97 1.04 3.04 1.41l1.85 3.11 6.33.22 2.06-2.98c1.09-.29 2.14-.7 3.13-1.2l2.98.76 4.63-4.32-.56-3.04c.57-.95 1.04-1.97 1.41-3.03l3.12-1.85.22-6.32zm-19.73 9.62c-3.94-.13-7.01-3.44-6.88-7.36.13-3.94 3.43-7.01 7.36-6.88 3.94.13 7.01 3.43 6.88 7.36-.13 3.93-3.43 7.02-7.36 6.88z"/><path class="st12" d="m323.04 119.12.52-1.26c.37-.19.73-.43 1.05-.68l1.16.04 1.36-1.95-.44-1.07c.13-.39.23-.8.28-1.22l1-.92-.42-2.34-1.26-.52c-.19-.37-.42-.72-.68-1.04l.04-1.16-1.95-1.36-1.07.44c-.4-.14-.8-.23-1.22-.28l-.92-1-2.34.42-.52 1.26c-.38.19-.73.42-1.05.68l-1.16-.04-1.36 1.95.44 1.07c-.13.39-.23.8-.28 1.23l-1 .92.42 2.34 1.26.52c.19.38.43.73.69 1.05l-.04 1.15 1.95 1.36 1.07-.44c.4.14.8.23 1.22.28l.92 1 2.33-.43zm-5.09-6.48a2.67 2.67 0 0 1 2.16-3.1c1.46-.26 2.84.71 3.1 2.16s-.71 2.84-2.16 3.1a2.68 2.68 0 0 1-3.1-2.16zM295.61 112.49l-.76-.64c1.33-1.57 3.21-3.56 6.01-5.03l.46.89c-2.99 1.55-4.9 3.81-5.71 4.78zM303.59 106.8l-.39-.92c3.78-1.62 7.73-2.25 11.74-1.88l-.09 1c-3.85-.37-7.63.25-11.26 1.8zM301.7 113.72l-.83-.56c2.05-3.02 6.11-5.64 9.87-6.39l.19.98c-3.51.7-7.31 3.15-9.23 5.97z"/><path class="st11" d="M235.34 209.96c-.13 0-.26-.05-.36-.15l-2.1-2.16c-1.07-.1-2.12-.3-3.15-.59l-3.27 1.44a.51.51 0 0 1-.48-.04l-5.48-3.63a.473.473 0 0 1-.22-.42l.05-3.56a17.26 17.26 0 0 1-1.77-2.68l-2.81-1.09a.488.488 0 0 1-.31-.37l-1.31-6.44c-.03-.17.02-.34.14-.46l2.16-2.1c.1-1.06.3-2.12.58-3.15l-1.44-3.26a.51.51 0 0 1 .04-.48l3.63-5.48c.09-.14.23-.23.42-.22l3.56.05c.84-.67 1.74-1.26 2.68-1.76l1.09-2.81c.06-.16.2-.28.37-.31l6.44-1.31c.17-.03.34.02.46.14l2.09 2.16c1.06.1 2.12.3 3.15.59l3.26-1.44a.51.51 0 0 1 .48.04l5.48 3.63c.14.09.23.25.22.42l-.05 3.57c.67.83 1.26 1.73 1.76 2.67l2.81 1.09c.16.06.28.2.31.37l1.31 6.44c.03.17-.02.34-.14.46l-2.16 2.1c-.1 1.05-.3 2.11-.59 3.14l1.44 3.27c.07.16.05.34-.04.48l-3.63 5.47c-.09.14-.24.21-.42.22l-3.56-.05c-.83.66-1.73 1.25-2.68 1.76l-1.09 2.81c-.06.16-.2.28-.37.31l-6.44 1.31c.01.01-.02.02-.06.02zm-5.63-3.93c.05 0 .09.01.14.02 1.07.31 2.18.52 3.31.62.12.01.23.06.32.15l2.04 2.1 5.9-1.2 1.06-2.73a.47.47 0 0 1 .24-.26c1-.52 1.95-1.14 2.82-1.85.09-.07.19-.13.32-.11l3.47.05 3.33-5.02-1.4-3.18a.5.5 0 0 1-.02-.34c.32-1.09.52-2.21.62-3.31.01-.12.06-.23.15-.32l2.1-2.04-1.2-5.9-2.73-1.06a.49.49 0 0 1-.27-.24c-.52-1-1.14-1.94-1.85-2.81a.443.443 0 0 1-.11-.33l.05-3.47-5.02-3.33-3.18 1.4a.5.5 0 0 1-.34.02c-1.08-.32-2.2-.52-3.32-.62a.505.505 0 0 1-.32-.15l-2.03-2.1-5.9 1.2-1.06 2.73a.47.47 0 0 1-.24.26c-1 .52-1.94 1.14-2.82 1.85-.09.07-.21.13-.33.11l-3.47-.05-3.33 5.02 1.4 3.18c.06.14.06.29-.01.43-.28 1-.49 2.11-.58 3.23-.01.12-.06.23-.15.32l-2.1 2.04 1.2 5.9 2.73 1.06c.12.05.22.14.27.26.52.99 1.14 1.93 1.84 2.79.08.09.12.21.12.33l-.05 3.47 5.02 3.33 3.18-1.4c.06-.04.13-.05.2-.05zm4.91-3.24c-2.53 0-5.08-.72-7.34-2.21a13.246 13.246 0 0 1-5.7-8.46 13.21 13.21 0 0 1 1.95-10.01c4.07-6.13 12.35-7.81 18.47-3.75 6.12 4.06 7.8 12.35 3.74 18.47-2.55 3.87-6.79 5.96-11.12 5.96zm-10.25-20.13a12.208 12.208 0 0 0-1.8 9.26c.66 3.23 2.53 6 5.27 7.82 5.67 3.75 13.33 2.2 17.08-3.46 3.75-5.66 2.2-13.33-3.46-17.09-5.67-3.75-13.33-2.19-17.09 3.47z"/></g><g><path class="st9" d="m425.83 231.65-15.69-2.12 10.38-77.81-30.28-4.09-73.45 67.63-3.86 28.93 63.29 8.54-3.16 23.66 30.28 4.09 3.16-23.66 15.69 2.12 3.64-27.29zm-79.42-10.72 38.76-35.33-5.32 39.84-33.44-4.51z"/><path class="st9" d="M394.13 279.74c-.03 0-.06 0-.09-.01a.499.499 0 0 1-.4-.58l23.33-127.93c.05-.27.31-.44.58-.4.27.05.45.31.4.58l-23.33 127.93c-.04.24-.25.41-.49.41zM414.83 153.37c-.02.45-.39.81-.85.79-.45-.02-.81-.39-.79-.85s.39-.81.85-.79c.45.02.81.4.79.85zM411.5 170.67c-.02.45-.39.81-.85.79s-.81-.39-.79-.85.39-.81.85-.79c.45.02.8.4.79.85zM408.17 187.97c-.02.45-.39.81-.85.79s-.81-.39-.79-.85.39-.81.85-.79c.45.02.8.4.79.85zM401.61 205.98c-.02.45-.39.81-.85.79-.45-.02-.81-.39-.79-.85s.39-.81.85-.79.81.4.79.85zM401.5 222.57c-.02.45-.39.81-.85.79-.45-.02-.81-.39-.79-.85s.39-.81.85-.79c.45.02.81.4.79.85zM398.17 239.87c-.02.45-.39.81-.85.79s-.81-.39-.79-.85c.02-.45.39-.81.85-.79s.8.4.79.85zM394.84 257.17c-.02.45-.39.81-.85.79a.818.818 0 0 1-.79-.85c.02-.45.39-.81.85-.79.45.02.8.4.79.85zM391.5 274.48c-.02.45-.39.81-.85.79s-.81-.39-.79-.85.39-.81.85-.79.81.39.79.85z"/><path class="st9" d="M400.79 206.45c-.23 0-.44-.16-.49-.4-.06-.27.11-.54.38-.59l2.48-.53c.27-.05.54.11.59.38.06.27-.11.54-.38.59l-2.48.53c-.03.02-.06.02-.1.02z"/><g><path class="st9" d="M409.08 197.24s-2.24 5.83-2.99 9.36c-.75 3.53-.8 11.42-.8 11.42"/><path class="st9" d="M405.29 218.53c-.28 0-.5-.23-.5-.5 0-.32.05-7.98.81-11.53.75-3.53 2.92-9.2 3.01-9.44.1-.26.39-.38.65-.29.26.1.39.39.29.65-.02.06-2.23 5.83-2.97 9.29-.73 3.44-.79 11.25-.79 11.32 0 .27-.22.5-.5.5z"/></g></g></g><g id="Character_1_"><path class="st8" d="M222.45 304.84c1.39-22.4-1.17-63.13 40.94-57.74 45.14 5.78 32.22 58.56 32.22 58.56l-73.16-.82z"/><circle class="st11" cx="251.51" cy="273" r="18.38"/><path class="st8" d="M253.93 254.65c-8.7-1.49-18.01 4.93-18.93 11.43l34.51 3.17c-1.22-7.4-8.68-13.42-15.58-14.6z"/><path class="st8" d="M265.58 272.54c-.25 4.8-2.86 8.57-5.85 8.42s-5.2-4.17-4.95-8.98c.25-4.8 2.86-8.57 5.85-8.42 2.97.16 5.19 4.18 4.95 8.98z"/><path class="st12" d="M251.51 292.38c-10.68 0-19.38-8.69-19.38-19.38s8.69-19.38 19.38-19.38c10.68 0 19.38 8.69 19.38 19.38s-8.69 19.38-19.38 19.38zm0-36.75c-9.58 0-17.38 7.79-17.38 17.38s7.79 17.38 17.38 17.38c9.58 0 17.38-7.79 17.38-17.38s-7.8-17.38-17.38-17.38z"/><path class="st13" d="M290.49 304.28c-.04 0-.08 0-.12-.01a.497.497 0 0 1-.37-.6c.03-.13 3.22-13.69-.09-27.4a.49.49 0 0 1 .37-.6c.26-.06.54.1.6.37 3.37 13.95.12 27.73.09 27.87-.05.21-.26.37-.48.37zM287.7 268.76c-.19 0-.37-.11-.46-.29-1.29-2.81-2.88-5.38-4.74-7.66a.503.503 0 0 1 .07-.7c.21-.18.53-.14.7.07 1.91 2.34 3.56 4.99 4.88 7.87.12.25 0 .55-.25.66-.06.03-.13.05-.2.05z"/><path class="st8" d="M128.73 409.92h-.37a5.004 5.004 0 0 1-4.86-5.14c.08-2.76 2.35-4.89 5.14-4.86h.1c2.89 0 9.84-3.51 24.38-26.43a5.003 5.003 0 0 1 3.5-2.27c1.44-.21 2.91.22 4 1.18 17.94 15.64 36.95 25.38 37.14 25.48a4.999 4.999 0 0 1 2.19 6.72c-1.25 2.46-4.26 3.45-6.72 2.2-.76-.38-17.37-8.88-34.8-23.15-12.18 18.31-21.22 26.27-29.7 26.27z"/><path class="st8" d="M159.67 371.5a3 3 0 0 1-2.98-3.42c.71-4.98-.17-23.63-6.47-38.13a3.015 3.015 0 0 1 1.06-3.68c13.7-9.33 42.88-10.45 44.11-10.49 1.65-.04 3.04 1.24 3.1 2.89a2.996 2.996 0 0 1-2.89 3.1c-.27.01-25.78.99-38.89 8.2 5.58 14.44 6.85 32.44 5.92 38.95a2.991 2.991 0 0 1-2.96 2.58z"/><path class="st12" d="M164.71 367.62c-2-4.71-10.99-4.17-16.27-.14-2.82 2.16-6.64 8.64-7.04 10.99-.4 2.35 1.23 4.48 4.02 4.24 3.45-.3 8.18-5.31 8.18-5.31-3.15 3.09.91 5.27 6.98.8 3.36-2.48 6.36-5.31 4.13-10.58z"/><path class="st8" d="M336.71 306.16c-.05 0-.09-.01-.14-.02a.493.493 0 0 1-.34-.62c1.33-4.64 2.79-7.47 4.7-9.05-.29-1-.26-2.14.15-3.26.4-1.09 1.18-2.17 2.36-3-.58-.63-.79-1.45-.59-2.38.23-1.04.98-2.17 2.14-3.16-.45-.52-.56-1.09-.57-1.51-.03-2.98 5.51-7.53 11.76-8.38.27-.05.53.15.56.43a.49.49 0 0 1-.43.56c-5.94.81-10.92 5.11-10.9 7.38 0 .37.14.66.36.9 2.25-1.57 5.57-2.58 9.28-1.86 3.07.59 4.32 1.24 4.17 2.17-.27 1.75-6.81 2.12-11.19 1.59-.99-.12-1.72-.35-2.25-.65-1.09.89-1.79 1.89-1.97 2.73-.16.75.08 1.27.5 1.64 1.86-.96 4.47-1.36 7.92-.59 4.54 1 4.71 1.55 4.81 1.88.07.24.01.48-.16.66-.96 1.01-7.91.53-11.4-.32-.45-.11-.86-.26-1.2-.45-1.16.73-1.9 1.71-2.27 2.71-.29.8-.36 1.59-.23 2.3.18-.11.36-.21.55-.29 2.07-.98 4.57-.82 7.65.5 2.04.88 3.03 1.65 3.1 2.44.02.23-.02.68-.57 1.04-1.52 1.01-6.87.86-9.65-.62-.66-.35-1.17-.87-1.54-1.49-1.63 1.49-2.95 4.17-4.16 8.36a.45.45 0 0 1-.45.36zm5.42-9.33c.28.51.69.93 1.22 1.22 2.26 1.2 6.7 1.48 8.36.8.34-.14.39-.25.39-.25s-.05-.56-2.5-1.61c-2.8-1.2-5.04-1.37-6.83-.52-.22.11-.43.22-.64.36zm3.34-6.57c.09.03.17.05.26.07 3.53.86 8.3 1.01 9.93.74-.51-.21-1.54-.56-3.64-1.02-2.77-.6-4.94-.41-6.55.21zm1.26-5.62c.45.17.96.27 1.44.32 4.98.59 9.38-.11 10.04-.73-.17-.15-.84-.58-3.33-1.06-3.29-.62-6.16.21-8.15 1.47zM206.53 408.25c.66-.21.44-.85-.3-.85h-13.54c-25.78-2.73-43.79.93-32.44 1.79 11.35.86-.8.68-9.09 3.82-8.29 3.14 61.65 3.93 68.02 0 5.86-3.62-21.79-1.83-12.65-4.76z"/><path class="st12" d="m303.47 412.24-117.8-3.91-4.89-114.22 139.11 3.11z"/><path class="st8" d="M222.45 410.05c-.26 0-.48-.2-.5-.46l-9.44-114.72c-.02-.28.18-.52.46-.54.28-.02.52.18.54.46l9.44 114.72c.02.28-.18.52-.46.54h-.04z"/><path class="st5" d="m303.47 412.24 31.66-4.82 9.97-106.21-25.21-3.99z"/><path style="opacity:.2" d="m303.47 412.24 31.66-4.82 9.97-106.21-25.21-3.99z"/><path class="st8" d="m195.73 386.32-2.9-67.86c-.3-7.08 5.44-12.95 12.53-12.79l88.06 1.97c7.35.16 12.91 6.72 11.87 14l-9.76 68.39a12.26 12.26 0 0 1-12.55 10.53l-75.39-2.5c-6.42-.22-11.58-5.33-11.86-11.74z"/><path class="st11" d="m205.25 326.49 13.62.43-.11 3.51-8.53-.27-.08 2.61 7.91.25-.11 3.36-7.91-.25-.1 3.24 8.78.28-.12 3.73-13.87-.44.52-16.45zM221.4 343.47l.52-16.45 8.47.27c1.57.05 2.77.22 3.59.52.82.3 1.48.82 1.96 1.56.49.75.71 1.64.68 2.69-.03.91-.25 1.69-.66 2.34a4.53 4.53 0 0 1-1.66 1.56c-.44.25-1.04.45-1.81.59.6.22 1.03.44 1.3.65.18.14.44.44.79.89.34.45.57.8.68 1.04l2.31 4.85-5.74-.18-2.56-5.11c-.32-.66-.62-1.09-.88-1.3-.36-.27-.77-.41-1.23-.42l-.45-.01-.21 6.68-5.1-.17zm5.42-9.62 2.14.07c.23.01.68-.05 1.35-.18.34-.06.62-.22.84-.49.22-.27.34-.58.35-.94.02-.53-.14-.94-.47-1.24-.33-.3-.96-.46-1.88-.49l-2.23-.07-.1 3.34zM239.28 344.04l.52-16.45 8.47.27c1.57.05 2.77.22 3.59.52.82.3 1.48.82 1.96 1.56.49.75.71 1.64.68 2.69-.03.91-.25 1.69-.66 2.34a4.53 4.53 0 0 1-1.66 1.56c-.44.25-1.04.45-1.81.59.6.22 1.03.44 1.3.65.18.14.44.44.79.89.34.45.57.8.68 1.04l2.31 4.85-5.74-.18-2.56-5.11c-.32-.66-.62-1.09-.88-1.3-.36-.27-.77-.41-1.23-.42l-.45-.01-.21 6.68-5.1-.17zm5.41-9.62 2.14.07c.23.01.68-.05 1.35-.18.34-.06.62-.22.84-.49.22-.27.34-.58.35-.94.02-.53-.14-.94-.47-1.24-.33-.3-.96-.46-1.88-.49l-2.23-.07-.1 3.34zM256.32 336.36c.09-2.69.9-4.75 2.44-6.2 1.54-1.45 3.65-2.13 6.32-2.05 2.74.09 4.82.89 6.26 2.41 1.43 1.52 2.11 3.6 2.03 6.25-.06 1.92-.44 3.49-1.12 4.7a6.883 6.883 0 0 1-2.9 2.78c-1.25.65-2.78.94-4.61.88-1.86-.06-3.38-.4-4.58-1.03-1.2-.63-2.15-1.6-2.87-2.9-.71-1.31-1.04-2.92-.97-4.84zm5.08.18c-.05 1.66.22 2.86.81 3.61.59.75 1.42 1.13 2.48 1.17 1.09.03 1.95-.29 2.57-.99.62-.69.96-1.96 1.02-3.8.05-1.55-.23-2.69-.83-3.42s-1.44-1.12-2.51-1.15c-1.03-.03-1.86.3-2.5 1.01-.64.71-.99 1.9-1.04 3.57zM275.91 345.21l.52-16.45 8.47.27c1.57.05 2.77.22 3.59.52.82.3 1.48.82 1.96 1.56.49.75.71 1.64.68 2.69-.03.91-.25 1.69-.66 2.34a4.53 4.53 0 0 1-1.66 1.56c-.44.25-1.04.45-1.81.59.6.22 1.03.44 1.3.65.18.14.44.44.79.89.34.45.57.8.68 1.04l2.31 4.85-5.74-.18-2.56-5.11c-.32-.66-.62-1.09-.88-1.3-.36-.27-.77-.41-1.23-.42l-.45-.01-.21 6.68-5.1-.17zm5.41-9.63 2.14.07c.23.01.68-.05 1.35-.18.34-.06.62-.22.84-.49.22-.27.34-.58.35-.94.02-.53-.14-.94-.47-1.24-.33-.3-.96-.46-1.88-.49l-2.23-.07-.1 3.34z"/><path class="st12" d="M284 373.16c-.36 0-.71-.14-.97-.43l-8.56-9.37-9.24 8.44c-.54.49-1.37.45-1.85-.08l-8.56-9.37-9.24 8.44c-.54.49-1.37.45-1.85-.08l-8.56-9.37-9.24 8.44a1.309 1.309 0 0 1-1.85-.09l-8.56-9.37-9.24 8.44a1.31 1.31 0 0 1-1.77-1.93l10.21-9.33a1.31 1.31 0 0 1 1.85.08l8.56 9.37 9.24-8.44a1.309 1.309 0 0 1 1.85.09l8.56 9.37 9.24-8.44a1.31 1.31 0 0 1 1.85.08l8.56 9.37 9.24-8.44c.53-.49 1.36-.45 1.85.08l9.45 10.34c.49.54.45 1.37-.08 1.85-.26.23-.58.35-.89.35zM125.75 414.67l-6.26-2.99-5.58-27.16 3.03-3.34zM125.75 414.67l8.3-4.85-7.11-22.39-10-6.25z"/><path class="st15" d="m125.75 414.67 8.3-4.85-7.11-22.39-10-6.25z"/><path class="st8" d="M261.95 419.61c-.24 0-.47 0-.69-.01a5.004 5.004 0 0 1-4.86-5.14 4.998 4.998 0 0 1 5.14-4.86c7.7.25 24.01-4.48 33.32-13.52a5.01 5.01 0 0 1 2.05-1.2c15.79-4.74 21.66 4.83 21.91 5.24l-8.61 5.09s.03.07.12.18c-.1-.13-2.33-3.04-9.45-1.24-11.71 10.67-29.65 15.46-38.93 15.46z"/><g><path class="st12" d="m261.39 426.25-18.21-1.15-1.43-33.57 24.47.91z"/><path class="st12" d="m261.39 426.25 4.26-4.23 2.64-20.94-2.07-8.64z"/><path class="st15" d="m261.39 426.25 4.26-4.23 2.64-20.94-2.07-8.64z"/></g><path class="st8" d="M366.91 413.54c-.63 0-1.27-.2-1.81-.61-10.39-7.9-24.45-21.93-29.84-35.46-.08-.2-.14-.4-.17-.61-2.63-15.63-5.14-48.54-5.25-49.93a3 3 0 0 1 2.76-3.22 3.007 3.007 0 0 1 3.22 2.76c.03.34 2.56 33.57 5.13 49.07 5.38 13.16 19.96 26.67 27.78 32.61 1.32 1 1.58 2.88.57 4.2-.59.78-1.48 1.19-2.39 1.19zM380.78 415.05c-2.32 0-4.95-1.05-7.81-3.13a3.004 3.004 0 0 1-.67-4.19 3.004 3.004 0 0 1 4.19-.67c2.48 1.79 3.83 1.99 4.3 1.99 1.66 0 3 1.34 3 3-.01 1.66-1.36 3-3.01 3z"/><path class="st12" d="M373.8 411.84c3.21-9.54 16.37-7.65 20.9-6.24 4.53 1.42 8.61 3.2 11.07 4.8 2.45 1.6 2.49 4.29-.78 5.82-4.04 1.89-14.16.21-14.16.21 5.24 2.29-.01 5.97-9.21 2.36-2.98-1.17-8.95-3.45-7.82-6.95z"/><path class="st8" d="M341.86 331.04c-1.19 8.1-7.9 14.08-13.36 13.27-5.46-.8-5.68-8.04-4.49-16.14 1.19-8.1 3.35-14 8.81-13.2 5.45.8 10.23 7.96 9.04 16.07z"/><circle class="st8" cx="209.88" cy="297.88" r=".82"/><path class="st8" d="M218.21 303.78c0 .45-.37.82-.82.82s-.82-.37-.82-.82c0-.45.37-.82.82-.82s.82.37.82.82zM219.13 400.68c0 .45-.37.82-.82.82-.45 0-.82-.37-.82-.82 0-.45.37-.82.82-.82.45 0 .82.37.82.82zM226.64 406.59c0 .45-.37.82-.82.82-.45 0-.82-.37-.82-.82 0-.45.37-.82.82-.82.45 0 .82.36.82.82z"/></g><g id="Robot_Parts"><linearGradient id="SVGID_1_" gradientUnits="userSpaceOnUse" x1="75.088" y1="410.91" x2="102.807" y2="410.91"><stop offset="0" style="stop-color:#fff"/><stop offset="1" style="stop-color:#000"/></linearGradient><path d="M82.51 416.42c-2.38 0-5.6-1.44-7.33-3.95a.5.5 0 0 1 .13-.7.5.5 0 0 1 .7.13c1.87 2.69 5.98 4.13 7.81 3.28.19-.09.35-.2.47-.34-1.63-.75-3.12-2.23-3.53-4.48-.23-1.27-.41-2.98.64-3.22 1.43-.32 3.31 3.15 4.03 5.78.13.49.18.94.13 1.34.63.17 1.25.22 1.79.14.43-.06 1.05-.24 1.37-.75-1.21-.82-2.03-2.27-2.3-4.19-.39-2.73-.1-3.21.21-3.44.2-.15.45-.18.69-.08 1.07.46 2.37 4.33 2.61 6.53.03.24.03.47 0 .69.41.16.86.25 1.35.26.87.05 1.72-.23 2.41-.63-.14-.09-.28-.19-.4-.29-1.04-.89-1.46-2.3-1.28-4.33.14-1.57.49-2.42 1.12-2.69.22-.1.67-.19 1.21.24 1.08.86 2.09 3.6 1.73 5.56-.08.41-.25.79-.5 1.15 1.83.32 4.42-.2 6.64-.75a.504.504 0 1 1 .24.98c-2.71.67-5.63 1.21-7.69.62-.92.73-2.21 1.17-3.5 1.16a4.83 4.83 0 0 1-1.64-.31c-.39.67-1.13 1.13-2.12 1.27-.66.1-1.45.04-2.24-.19-.23.38-.56.68-1.01.89-.5.21-1.09.32-1.74.32zm-.86-8.28c-.06.15-.16.66.08 2.04.33 1.84 1.52 3.06 2.84 3.71-.01-.21-.05-.45-.12-.71-.78-2.85-2.28-4.82-2.8-5.04zm5.57-.87c-.01.38.03 1.01.18 2.06.2 1.43.73 2.52 1.52 3.22-.24-2.01-1.13-4.33-1.7-5.28zm6.29-.87s-.38.19-.52 1.86c-.15 1.68.16 2.82.93 3.48.18.15.38.28.6.38.28-.31.48-.66.54-1.03.27-1.45-.42-3.57-1.2-4.43-.19-.22-.32-.26-.35-.26z" style="fill:url(#SVGID_1_)"/><linearGradient id="SVGID_2_" gradientUnits="userSpaceOnUse" x1="225.972" y1="419.278" x2="231.583" y2="419.278"><stop offset="0" style="stop-color:#fff"/><stop offset="1" style="stop-color:#000"/></linearGradient><path style="fill:url(#SVGID_2_)" d="m228.87 423.98 2.71-4.7-2.71-4.7h-2.9l1.64 4.7-1.64 4.7z"/><linearGradient id="SVGID_3_" gradientUnits="userSpaceOnUse" x1="220.333" y1="419.346" x2="226.163" y2="419.346"><stop offset="0" style="stop-color:#fff"/><stop offset="1" style="stop-color:#000"/></linearGradient><path d="M226.16 421.73c-1.35 0-2.45-1.1-2.45-2.45s1.1-2.44 2.45-2.44l-4.61-.92-1.22 3.72 2.06 3.14 3.77-1.05z" style="fill:url(#SVGID_3_)"/><linearGradient id="SVGID_4_" gradientUnits="userSpaceOnUse" x1="218.417" y1="419.278" x2="229.267" y2="419.278"><stop offset="0" style="stop-color:#fff"/><stop offset="1" style="stop-color:#000"/></linearGradient><path d="M226.56 414.58h-5.43l-2.71 4.7 2.71 4.7h5.43l2.71-4.7-2.71-4.7zm-2.71 7.15c-1.35 0-2.45-1.1-2.45-2.45s1.1-2.44 2.45-2.44 2.44 1.09 2.44 2.44c0 1.35-1.09 2.45-2.44 2.45z" style="fill:url(#SVGID_4_)"/><g><linearGradient id="SVGID_5_" gradientUnits="userSpaceOnUse" x1="415.877" y1="410.774" x2="420.044" y2="410.774"><stop offset="0" style="stop-color:#fff"/><stop offset="1" style="stop-color:#000"/></linearGradient><path style="fill:url(#SVGID_5_)" d="m417.89 414.27-2.01-3.5 2.01-3.49h2.15l-1.21 3.49 1.21 3.5z"/><linearGradient id="SVGID_6_" gradientUnits="userSpaceOnUse" x1="419.902" y1="410.825" x2="424.232" y2="410.825"><stop offset="0" style="stop-color:#fff"/><stop offset="1" style="stop-color:#000"/></linearGradient><path d="M419.9 412.59c1 0 1.82-.82 1.82-1.82s-.82-1.81-1.82-1.81l3.42-.68.91 2.76-1.53 2.33-2.8-.78z" style="fill:url(#SVGID_6_)"/><linearGradient id="SVGID_7_" gradientUnits="userSpaceOnUse" x1="417.597" y1="410.774" x2="425.655" y2="410.774"><stop offset="0" style="stop-color:#fff"/><stop offset="1" style="stop-color:#000"/></linearGradient><path d="M419.61 407.28h4.03l2.01 3.49-2.01 3.49h-4.03l-2.01-3.49 2.01-3.49zm2.01 5.31c1 0 1.82-.82 1.82-1.82s-.82-1.81-1.82-1.81-1.81.81-1.81 1.81c0 1.01.81 1.82 1.81 1.82z" style="fill:url(#SVGID_7_)"/></g><g><linearGradient id="SVGID_8_" gradientUnits="userSpaceOnUse" x1="340.809" y1="416.759" x2="349.605" y2="416.759"><stop offset="0" style="stop-color:#fff"/><stop offset="1" style="stop-color:#000"/></linearGradient><path d="M342.95 418.9h4.52c1.18 0 2.14-.96 2.14-2.14 0-1.18-.96-2.14-2.14-2.14h-4.52c-1.18 0-2.14.96-2.14 2.14 0 1.18.96 2.14 2.14 2.14z" style="fill:url(#SVGID_8_)"/><linearGradient id="SVGID_9_" gradientUnits="userSpaceOnUse" x1="335.25" y1="416.759" x2="344.253" y2="416.759"><stop offset="0" style="stop-color:#fff"/><stop offset="1" style="stop-color:#000"/></linearGradient><path d="M335.73 414.86c1.12-2.37 3.82-3.44 6.04-2.39 2.22 1.05 3.12 3.81 2 6.18s-3.82 3.44-6.04 2.39c-2.22-1.04-3.12-3.81-2-6.18z" style="fill:url(#SVGID_9_)"/><linearGradient id="SVGID_10_" gradientUnits="userSpaceOnUse" x1="336.978" y1="416.759" x2="342.525" y2="416.759"><stop offset="0" style="stop-color:#fff"/><stop offset="1" style="stop-color:#000"/></linearGradient><path style="fill:url(#SVGID_10_)" d="m336.98 421.04 1.24.58 4.3-9.14-1.23-.58z"/></g></g></svg>